<mxfile host="app.diagrams.net" agent="Mozilla/5.0 (Windows NT 10.0; Win64; x64) AppleWebKit/537.36 (KHTML, like Gecko) Chrome/128.0.0.0 Safari/537.36" version="24.7.13">
  <diagram name="第 1 页" id="rptkqVoHsUkTf4WsuMpD">
    <mxGraphModel dx="1613" dy="-1037" grid="0" gridSize="10" guides="1" tooltips="1" connect="1" arrows="1" fold="1" page="1" pageScale="1" pageWidth="827" pageHeight="1169" math="1" shadow="0">
      <root>
        <mxCell id="0" />
        <mxCell id="1" parent="0" />
        <mxCell id="3oHLR1JAqA0yYfKcVh4d-373" value="" style="rounded=0;whiteSpace=wrap;html=1;dashed=1;dashPattern=8 8;" vertex="1" parent="1">
          <mxGeometry x="1180" y="3246" width="294" height="385" as="geometry" />
        </mxCell>
        <mxCell id="3oHLR1JAqA0yYfKcVh4d-372" value="" style="rounded=0;whiteSpace=wrap;html=1;dashed=1;dashPattern=8 8;" vertex="1" parent="1">
          <mxGeometry x="1183" y="2794" width="294" height="385" as="geometry" />
        </mxCell>
        <mxCell id="3oHLR1JAqA0yYfKcVh4d-371" value="" style="rounded=0;whiteSpace=wrap;html=1;dashed=1;dashPattern=8 8;" vertex="1" parent="1">
          <mxGeometry x="1187" y="2343.5" width="294" height="385" as="geometry" />
        </mxCell>
        <mxCell id="3oHLR1JAqA0yYfKcVh4d-121" value="$$a$$" style="whiteSpace=wrap;html=1;aspect=fixed;fillColor=#e1d5e7;strokeColor=#9673a6;fontSize=16;" vertex="1" parent="1">
          <mxGeometry x="1210" y="2360" width="45" height="45" as="geometry" />
        </mxCell>
        <mxCell id="3oHLR1JAqA0yYfKcVh4d-141" style="edgeStyle=orthogonalEdgeStyle;rounded=0;orthogonalLoop=1;jettySize=auto;html=1;entryX=0.5;entryY=0;entryDx=0;entryDy=0;" edge="1" parent="1" source="3oHLR1JAqA0yYfKcVh4d-124">
          <mxGeometry relative="1" as="geometry">
            <mxPoint x="1440" y="2530" as="targetPoint" />
          </mxGeometry>
        </mxCell>
        <mxCell id="3oHLR1JAqA0yYfKcVh4d-124" value="" style="verticalLabelPosition=bottom;verticalAlign=top;html=1;shape=mxgraph.flowchart.or;fontSize=16;fillColor=#BDBDBD;strokeColor=#000000;" vertex="1" parent="1">
          <mxGeometry x="1320" y="2440" width="40" height="40" as="geometry" />
        </mxCell>
        <mxCell id="3oHLR1JAqA0yYfKcVh4d-125" value="$$d$$" style="whiteSpace=wrap;html=1;aspect=fixed;fillColor=#e1d5e7;strokeColor=#9673a6;fontSize=16;" vertex="1" parent="1">
          <mxGeometry x="1210" y="2510" width="45" height="45" as="geometry" />
        </mxCell>
        <mxCell id="3oHLR1JAqA0yYfKcVh4d-128" value="$$x$$" style="whiteSpace=wrap;html=1;aspect=fixed;fillColor=#e1d5e7;strokeColor=#9673a6;fontSize=16;" vertex="1" parent="1">
          <mxGeometry x="1210" y="2645" width="45" height="45" as="geometry" />
        </mxCell>
        <mxCell id="3oHLR1JAqA0yYfKcVh4d-131" style="edgeStyle=orthogonalEdgeStyle;rounded=0;orthogonalLoop=1;jettySize=auto;html=1;entryX=0.5;entryY=0;entryDx=0;entryDy=0;entryPerimeter=0;" edge="1" parent="1" source="3oHLR1JAqA0yYfKcVh4d-121" target="3oHLR1JAqA0yYfKcVh4d-124">
          <mxGeometry relative="1" as="geometry" />
        </mxCell>
        <mxCell id="3oHLR1JAqA0yYfKcVh4d-133" style="edgeStyle=orthogonalEdgeStyle;rounded=0;orthogonalLoop=1;jettySize=auto;html=1;entryX=0.5;entryY=1;entryDx=0;entryDy=0;entryPerimeter=0;" edge="1" parent="1" source="3oHLR1JAqA0yYfKcVh4d-125" target="3oHLR1JAqA0yYfKcVh4d-124">
          <mxGeometry relative="1" as="geometry" />
        </mxCell>
        <mxCell id="3oHLR1JAqA0yYfKcVh4d-142" style="edgeStyle=orthogonalEdgeStyle;rounded=0;orthogonalLoop=1;jettySize=auto;html=1;entryX=0.5;entryY=1;entryDx=0;entryDy=0;" edge="1" parent="1" source="3oHLR1JAqA0yYfKcVh4d-134">
          <mxGeometry relative="1" as="geometry">
            <mxPoint x="1440" y="2570" as="targetPoint" />
          </mxGeometry>
        </mxCell>
        <mxCell id="3oHLR1JAqA0yYfKcVh4d-134" value="" style="verticalLabelPosition=bottom;verticalAlign=top;html=1;shape=mxgraph.flowchart.or;fontSize=16;fillColor=#BDBDBD;strokeColor=#000000;" vertex="1" parent="1">
          <mxGeometry x="1320" y="2605" width="40" height="40" as="geometry" />
        </mxCell>
        <mxCell id="3oHLR1JAqA0yYfKcVh4d-135" style="edgeStyle=orthogonalEdgeStyle;rounded=0;orthogonalLoop=1;jettySize=auto;html=1;entryX=0.5;entryY=1;entryDx=0;entryDy=0;entryPerimeter=0;" edge="1" parent="1" source="3oHLR1JAqA0yYfKcVh4d-128" target="3oHLR1JAqA0yYfKcVh4d-134">
          <mxGeometry relative="1" as="geometry" />
        </mxCell>
        <mxCell id="3oHLR1JAqA0yYfKcVh4d-137" style="edgeStyle=orthogonalEdgeStyle;rounded=0;orthogonalLoop=1;jettySize=auto;html=1;entryX=0;entryY=0.5;entryDx=0;entryDy=0;entryPerimeter=0;exitX=0.5;exitY=0;exitDx=0;exitDy=0;" edge="1" parent="1" source="3oHLR1JAqA0yYfKcVh4d-128" target="3oHLR1JAqA0yYfKcVh4d-134">
          <mxGeometry relative="1" as="geometry" />
        </mxCell>
        <mxCell id="3oHLR1JAqA0yYfKcVh4d-154" style="edgeStyle=orthogonalEdgeStyle;rounded=0;orthogonalLoop=1;jettySize=auto;html=1;entryX=0;entryY=0.5;entryDx=0;entryDy=0;exitX=0.5;exitY=0;exitDx=0;exitDy=0;" edge="1" parent="1" source="3oHLR1JAqA0yYfKcVh4d-145" target="3oHLR1JAqA0yYfKcVh4d-149">
          <mxGeometry relative="1" as="geometry" />
        </mxCell>
        <mxCell id="3oHLR1JAqA0yYfKcVh4d-166" style="edgeStyle=orthogonalEdgeStyle;rounded=0;orthogonalLoop=1;jettySize=auto;html=1;entryX=0;entryY=0.5;entryDx=0;entryDy=0;" edge="1" parent="1" source="3oHLR1JAqA0yYfKcVh4d-145" target="3oHLR1JAqA0yYfKcVh4d-162">
          <mxGeometry relative="1" as="geometry" />
        </mxCell>
        <mxCell id="3oHLR1JAqA0yYfKcVh4d-175" style="edgeStyle=orthogonalEdgeStyle;rounded=0;orthogonalLoop=1;jettySize=auto;html=1;entryX=0.5;entryY=0;entryDx=0;entryDy=0;" edge="1" parent="1" source="3oHLR1JAqA0yYfKcVh4d-145" target="3oHLR1JAqA0yYfKcVh4d-169">
          <mxGeometry relative="1" as="geometry">
            <Array as="points">
              <mxPoint x="1537" y="2663" />
              <mxPoint x="1634" y="2663" />
            </Array>
          </mxGeometry>
        </mxCell>
        <mxCell id="3oHLR1JAqA0yYfKcVh4d-145" value="" style="whiteSpace=wrap;html=1;fillColor=#bac8d3;strokeColor=#23445d;" vertex="1" parent="1">
          <mxGeometry x="1514" y="2527.5" width="45" height="45" as="geometry" />
        </mxCell>
        <mxCell id="3oHLR1JAqA0yYfKcVh4d-153" style="edgeStyle=orthogonalEdgeStyle;rounded=0;orthogonalLoop=1;jettySize=auto;html=1;" edge="1" parent="1" source="3oHLR1JAqA0yYfKcVh4d-147" target="3oHLR1JAqA0yYfKcVh4d-149">
          <mxGeometry relative="1" as="geometry" />
        </mxCell>
        <mxCell id="3oHLR1JAqA0yYfKcVh4d-147" value="$$d$$" style="whiteSpace=wrap;html=1;aspect=fixed;fillColor=#e1d5e7;strokeColor=#9673a6;fontSize=16;" vertex="1" parent="1">
          <mxGeometry x="1514" y="2405" width="45" height="45" as="geometry" />
        </mxCell>
        <mxCell id="3oHLR1JAqA0yYfKcVh4d-148" value="" style="group" vertex="1" connectable="0" parent="1">
          <mxGeometry x="1614" y="2465" width="40" height="40" as="geometry" />
        </mxCell>
        <mxCell id="3oHLR1JAqA0yYfKcVh4d-149" value="" style="ellipse;whiteSpace=wrap;html=1;aspect=fixed;fillColor=#ffe6cc;strokeColor=#d79b00;" vertex="1" parent="3oHLR1JAqA0yYfKcVh4d-148">
          <mxGeometry width="40" height="40" as="geometry" />
        </mxCell>
        <mxCell id="3oHLR1JAqA0yYfKcVh4d-150" value="" style="endArrow=none;html=1;rounded=0;" edge="1" parent="3oHLR1JAqA0yYfKcVh4d-148">
          <mxGeometry width="50" height="50" relative="1" as="geometry">
            <mxPoint x="4" y="20" as="sourcePoint" />
            <mxPoint x="37" y="20" as="targetPoint" />
          </mxGeometry>
        </mxCell>
        <mxCell id="3oHLR1JAqA0yYfKcVh4d-151" value="" style="verticalLabelPosition=bottom;verticalAlign=top;html=1;shape=mxgraph.flowchart.on-page_reference;fillColor=#000000;" vertex="1" parent="3oHLR1JAqA0yYfKcVh4d-148">
          <mxGeometry x="19" y="8" width="2" height="2" as="geometry" />
        </mxCell>
        <mxCell id="3oHLR1JAqA0yYfKcVh4d-152" value="" style="verticalLabelPosition=bottom;verticalAlign=top;html=1;shape=mxgraph.flowchart.on-page_reference;fillColor=#000000;" vertex="1" parent="3oHLR1JAqA0yYfKcVh4d-148">
          <mxGeometry x="19" y="30" width="2" height="2" as="geometry" />
        </mxCell>
        <mxCell id="3oHLR1JAqA0yYfKcVh4d-167" style="edgeStyle=orthogonalEdgeStyle;rounded=0;orthogonalLoop=1;jettySize=auto;html=1;entryX=0.5;entryY=1;entryDx=0;entryDy=0;" edge="1" parent="1" source="3oHLR1JAqA0yYfKcVh4d-155" target="3oHLR1JAqA0yYfKcVh4d-162">
          <mxGeometry relative="1" as="geometry" />
        </mxCell>
        <mxCell id="3oHLR1JAqA0yYfKcVh4d-155" value="$$a$$" style="whiteSpace=wrap;html=1;aspect=fixed;fillColor=#e1d5e7;strokeColor=#9673a6;fontSize=16;" vertex="1" parent="1">
          <mxGeometry x="1611.5" y="2606.5" width="45" height="45" as="geometry" />
        </mxCell>
        <mxCell id="3oHLR1JAqA0yYfKcVh4d-156" value="$$1$$" style="text;html=1;align=center;verticalAlign=middle;resizable=0;points=[];autosize=1;strokeColor=none;fillColor=none;fontSize=10;" vertex="1" parent="1">
          <mxGeometry x="1498" y="2403" width="46" height="24" as="geometry" />
        </mxCell>
        <mxCell id="3oHLR1JAqA0yYfKcVh4d-157" value="$$2$$" style="text;html=1;align=center;verticalAlign=middle;resizable=0;points=[];autosize=1;strokeColor=none;fillColor=none;" vertex="1" parent="1">
          <mxGeometry x="1494.5" y="2523" width="51" height="26" as="geometry" />
        </mxCell>
        <mxCell id="3oHLR1JAqA0yYfKcVh4d-176" style="edgeStyle=orthogonalEdgeStyle;rounded=0;orthogonalLoop=1;jettySize=auto;html=1;entryX=0.5;entryY=1;entryDx=0;entryDy=0;" edge="1" parent="1" source="3oHLR1JAqA0yYfKcVh4d-159" target="3oHLR1JAqA0yYfKcVh4d-169">
          <mxGeometry relative="1" as="geometry" />
        </mxCell>
        <mxCell id="3oHLR1JAqA0yYfKcVh4d-159" value="$$x$$" style="whiteSpace=wrap;html=1;aspect=fixed;fillColor=#e1d5e7;strokeColor=#9673a6;fontSize=16;" vertex="1" parent="1">
          <mxGeometry x="1611.5" y="2764" width="45" height="45" as="geometry" />
        </mxCell>
        <mxCell id="3oHLR1JAqA0yYfKcVh4d-160" value="$$1$$" style="text;html=1;align=center;verticalAlign=middle;resizable=0;points=[];autosize=1;strokeColor=none;fillColor=none;fontSize=10;" vertex="1" parent="1">
          <mxGeometry x="1594.5" y="2759" width="46" height="24" as="geometry" />
        </mxCell>
        <mxCell id="3oHLR1JAqA0yYfKcVh4d-161" value="" style="group" vertex="1" connectable="0" parent="1">
          <mxGeometry x="1614" y="2530" width="40" height="40" as="geometry" />
        </mxCell>
        <mxCell id="3oHLR1JAqA0yYfKcVh4d-162" value="" style="ellipse;whiteSpace=wrap;html=1;aspect=fixed;fillColor=#ffe6cc;strokeColor=#d79b00;" vertex="1" parent="3oHLR1JAqA0yYfKcVh4d-161">
          <mxGeometry width="40" height="40" as="geometry" />
        </mxCell>
        <mxCell id="3oHLR1JAqA0yYfKcVh4d-163" value="" style="endArrow=none;html=1;rounded=0;" edge="1" parent="3oHLR1JAqA0yYfKcVh4d-161">
          <mxGeometry width="50" height="50" relative="1" as="geometry">
            <mxPoint x="4" y="20" as="sourcePoint" />
            <mxPoint x="37" y="20" as="targetPoint" />
          </mxGeometry>
        </mxCell>
        <mxCell id="3oHLR1JAqA0yYfKcVh4d-164" value="" style="verticalLabelPosition=bottom;verticalAlign=top;html=1;shape=mxgraph.flowchart.on-page_reference;fillColor=#000000;" vertex="1" parent="3oHLR1JAqA0yYfKcVh4d-161">
          <mxGeometry x="19" y="8" width="2" height="2" as="geometry" />
        </mxCell>
        <mxCell id="3oHLR1JAqA0yYfKcVh4d-165" value="" style="verticalLabelPosition=bottom;verticalAlign=top;html=1;shape=mxgraph.flowchart.on-page_reference;fillColor=#000000;" vertex="1" parent="3oHLR1JAqA0yYfKcVh4d-161">
          <mxGeometry x="19" y="30" width="2" height="2" as="geometry" />
        </mxCell>
        <mxCell id="3oHLR1JAqA0yYfKcVh4d-168" value="" style="group" vertex="1" connectable="0" parent="1">
          <mxGeometry x="1614" y="2687" width="40" height="40" as="geometry" />
        </mxCell>
        <mxCell id="3oHLR1JAqA0yYfKcVh4d-169" value="" style="ellipse;whiteSpace=wrap;html=1;aspect=fixed;fillColor=#ffe6cc;strokeColor=#d79b00;" vertex="1" parent="3oHLR1JAqA0yYfKcVh4d-168">
          <mxGeometry width="40" height="40" as="geometry" />
        </mxCell>
        <mxCell id="3oHLR1JAqA0yYfKcVh4d-170" value="" style="endArrow=none;html=1;rounded=0;" edge="1" parent="3oHLR1JAqA0yYfKcVh4d-168">
          <mxGeometry width="50" height="50" relative="1" as="geometry">
            <mxPoint x="4" y="20" as="sourcePoint" />
            <mxPoint x="37" y="20" as="targetPoint" />
          </mxGeometry>
        </mxCell>
        <mxCell id="3oHLR1JAqA0yYfKcVh4d-171" value="" style="verticalLabelPosition=bottom;verticalAlign=top;html=1;shape=mxgraph.flowchart.on-page_reference;fillColor=#000000;" vertex="1" parent="3oHLR1JAqA0yYfKcVh4d-168">
          <mxGeometry x="19" y="8" width="2" height="2" as="geometry" />
        </mxCell>
        <mxCell id="3oHLR1JAqA0yYfKcVh4d-172" value="" style="verticalLabelPosition=bottom;verticalAlign=top;html=1;shape=mxgraph.flowchart.on-page_reference;fillColor=#000000;" vertex="1" parent="3oHLR1JAqA0yYfKcVh4d-168">
          <mxGeometry x="19" y="30" width="2" height="2" as="geometry" />
        </mxCell>
        <mxCell id="3oHLR1JAqA0yYfKcVh4d-188" style="edgeStyle=orthogonalEdgeStyle;rounded=0;orthogonalLoop=1;jettySize=auto;html=1;entryX=0;entryY=0.5;entryDx=0;entryDy=0;" edge="1" parent="1" source="3oHLR1JAqA0yYfKcVh4d-185" target="3oHLR1JAqA0yYfKcVh4d-145">
          <mxGeometry relative="1" as="geometry" />
        </mxCell>
        <mxCell id="3oHLR1JAqA0yYfKcVh4d-185" value="" style="shape=lineEllipse;perimeter=ellipsePerimeter;whiteSpace=wrap;html=1;backgroundOutline=1;fillColor=#f5f5f5;fontColor=#333333;strokeColor=#666666;" vertex="1" parent="1">
          <mxGeometry x="1420" y="2530" width="40" height="40" as="geometry" />
        </mxCell>
        <mxCell id="3oHLR1JAqA0yYfKcVh4d-189" value="$$1$$" style="text;html=1;align=center;verticalAlign=middle;resizable=0;points=[];autosize=1;strokeColor=none;fillColor=none;fontSize=10;" vertex="1" parent="1">
          <mxGeometry x="1594" y="2600.5" width="46" height="24" as="geometry" />
        </mxCell>
        <mxCell id="3oHLR1JAqA0yYfKcVh4d-190" value="$$b$$" style="whiteSpace=wrap;html=1;aspect=fixed;fillColor=#BBB1BF;strokeColor=#9673a6;fontSize=16;" vertex="1" parent="1">
          <mxGeometry x="1210" y="2814" width="45" height="45" as="geometry" />
        </mxCell>
        <mxCell id="3oHLR1JAqA0yYfKcVh4d-191" style="edgeStyle=orthogonalEdgeStyle;rounded=0;orthogonalLoop=1;jettySize=auto;html=1;entryX=0.5;entryY=0;entryDx=0;entryDy=0;" edge="1" parent="1" source="3oHLR1JAqA0yYfKcVh4d-192">
          <mxGeometry relative="1" as="geometry">
            <mxPoint x="1440" y="2984" as="targetPoint" />
          </mxGeometry>
        </mxCell>
        <mxCell id="3oHLR1JAqA0yYfKcVh4d-192" value="" style="verticalLabelPosition=bottom;verticalAlign=top;html=1;shape=mxgraph.flowchart.or;fontSize=16;fillColor=#BDBDBD;strokeColor=#000000;" vertex="1" parent="1">
          <mxGeometry x="1320" y="2894" width="40" height="40" as="geometry" />
        </mxCell>
        <mxCell id="3oHLR1JAqA0yYfKcVh4d-193" value="$$e$$" style="whiteSpace=wrap;html=1;aspect=fixed;fillColor=#BBB1BF;strokeColor=#9673a6;fontSize=16;" vertex="1" parent="1">
          <mxGeometry x="1210" y="2964" width="45" height="45" as="geometry" />
        </mxCell>
        <mxCell id="3oHLR1JAqA0yYfKcVh4d-194" value="$$y$$" style="whiteSpace=wrap;html=1;aspect=fixed;fillColor=#BBB1BF;strokeColor=#9673a6;fontSize=16;" vertex="1" parent="1">
          <mxGeometry x="1210" y="3099" width="45" height="45" as="geometry" />
        </mxCell>
        <mxCell id="3oHLR1JAqA0yYfKcVh4d-195" style="edgeStyle=orthogonalEdgeStyle;rounded=0;orthogonalLoop=1;jettySize=auto;html=1;entryX=0.5;entryY=0;entryDx=0;entryDy=0;entryPerimeter=0;" edge="1" parent="1" source="3oHLR1JAqA0yYfKcVh4d-190" target="3oHLR1JAqA0yYfKcVh4d-192">
          <mxGeometry relative="1" as="geometry" />
        </mxCell>
        <mxCell id="3oHLR1JAqA0yYfKcVh4d-196" style="edgeStyle=orthogonalEdgeStyle;rounded=0;orthogonalLoop=1;jettySize=auto;html=1;entryX=0.5;entryY=1;entryDx=0;entryDy=0;entryPerimeter=0;" edge="1" parent="1" source="3oHLR1JAqA0yYfKcVh4d-193" target="3oHLR1JAqA0yYfKcVh4d-192">
          <mxGeometry relative="1" as="geometry" />
        </mxCell>
        <mxCell id="3oHLR1JAqA0yYfKcVh4d-197" style="edgeStyle=orthogonalEdgeStyle;rounded=0;orthogonalLoop=1;jettySize=auto;html=1;entryX=0.5;entryY=1;entryDx=0;entryDy=0;" edge="1" parent="1" source="3oHLR1JAqA0yYfKcVh4d-198">
          <mxGeometry relative="1" as="geometry">
            <mxPoint x="1440" y="3024" as="targetPoint" />
          </mxGeometry>
        </mxCell>
        <mxCell id="3oHLR1JAqA0yYfKcVh4d-198" value="" style="verticalLabelPosition=bottom;verticalAlign=top;html=1;shape=mxgraph.flowchart.or;fontSize=16;fillColor=#BDBDBD;strokeColor=#000000;" vertex="1" parent="1">
          <mxGeometry x="1320" y="3059" width="40" height="40" as="geometry" />
        </mxCell>
        <mxCell id="3oHLR1JAqA0yYfKcVh4d-199" style="edgeStyle=orthogonalEdgeStyle;rounded=0;orthogonalLoop=1;jettySize=auto;html=1;entryX=0.5;entryY=1;entryDx=0;entryDy=0;entryPerimeter=0;" edge="1" parent="1" source="3oHLR1JAqA0yYfKcVh4d-194" target="3oHLR1JAqA0yYfKcVh4d-198">
          <mxGeometry relative="1" as="geometry" />
        </mxCell>
        <mxCell id="3oHLR1JAqA0yYfKcVh4d-200" style="edgeStyle=orthogonalEdgeStyle;rounded=0;orthogonalLoop=1;jettySize=auto;html=1;entryX=0;entryY=0.5;entryDx=0;entryDy=0;entryPerimeter=0;exitX=0.5;exitY=0;exitDx=0;exitDy=0;" edge="1" parent="1" source="3oHLR1JAqA0yYfKcVh4d-194" target="3oHLR1JAqA0yYfKcVh4d-198">
          <mxGeometry relative="1" as="geometry" />
        </mxCell>
        <mxCell id="3oHLR1JAqA0yYfKcVh4d-201" style="edgeStyle=orthogonalEdgeStyle;rounded=0;orthogonalLoop=1;jettySize=auto;html=1;entryX=0;entryY=0.5;entryDx=0;entryDy=0;exitX=0.5;exitY=0;exitDx=0;exitDy=0;" edge="1" parent="1" source="3oHLR1JAqA0yYfKcVh4d-204" target="3oHLR1JAqA0yYfKcVh4d-209">
          <mxGeometry relative="1" as="geometry" />
        </mxCell>
        <mxCell id="3oHLR1JAqA0yYfKcVh4d-202" style="edgeStyle=orthogonalEdgeStyle;rounded=0;orthogonalLoop=1;jettySize=auto;html=1;entryX=0;entryY=0.5;entryDx=0;entryDy=0;" edge="1" parent="1" source="3oHLR1JAqA0yYfKcVh4d-204" target="3oHLR1JAqA0yYfKcVh4d-223">
          <mxGeometry relative="1" as="geometry" />
        </mxCell>
        <mxCell id="3oHLR1JAqA0yYfKcVh4d-203" style="edgeStyle=orthogonalEdgeStyle;rounded=0;orthogonalLoop=1;jettySize=auto;html=1;entryX=0.5;entryY=0;entryDx=0;entryDy=0;" edge="1" parent="1" source="3oHLR1JAqA0yYfKcVh4d-204" target="3oHLR1JAqA0yYfKcVh4d-229">
          <mxGeometry relative="1" as="geometry">
            <Array as="points">
              <mxPoint x="1537" y="3117" />
              <mxPoint x="1634" y="3117" />
            </Array>
          </mxGeometry>
        </mxCell>
        <mxCell id="3oHLR1JAqA0yYfKcVh4d-204" value="" style="whiteSpace=wrap;html=1;fillColor=#bac8d3;strokeColor=#23445d;" vertex="1" parent="1">
          <mxGeometry x="1514" y="2981.5" width="45" height="45" as="geometry" />
        </mxCell>
        <mxCell id="3oHLR1JAqA0yYfKcVh4d-205" style="edgeStyle=orthogonalEdgeStyle;rounded=0;orthogonalLoop=1;jettySize=auto;html=1;" edge="1" parent="1" source="3oHLR1JAqA0yYfKcVh4d-206" target="3oHLR1JAqA0yYfKcVh4d-209">
          <mxGeometry relative="1" as="geometry" />
        </mxCell>
        <mxCell id="3oHLR1JAqA0yYfKcVh4d-206" value="$$e$$" style="whiteSpace=wrap;html=1;aspect=fixed;fillColor=#BBB1BF;strokeColor=#9673a6;fontSize=16;" vertex="1" parent="1">
          <mxGeometry x="1514" y="2859" width="45" height="45" as="geometry" />
        </mxCell>
        <mxCell id="3oHLR1JAqA0yYfKcVh4d-207" value="" style="group" vertex="1" connectable="0" parent="1">
          <mxGeometry x="1614" y="2919" width="40" height="40" as="geometry" />
        </mxCell>
        <mxCell id="3oHLR1JAqA0yYfKcVh4d-209" value="" style="ellipse;whiteSpace=wrap;html=1;aspect=fixed;fillColor=#ffe6cc;strokeColor=#d79b00;" vertex="1" parent="3oHLR1JAqA0yYfKcVh4d-207">
          <mxGeometry width="40" height="40" as="geometry" />
        </mxCell>
        <mxCell id="3oHLR1JAqA0yYfKcVh4d-210" value="" style="endArrow=none;html=1;rounded=0;" edge="1" parent="3oHLR1JAqA0yYfKcVh4d-207">
          <mxGeometry width="50" height="50" relative="1" as="geometry">
            <mxPoint x="4" y="20" as="sourcePoint" />
            <mxPoint x="37" y="20" as="targetPoint" />
          </mxGeometry>
        </mxCell>
        <mxCell id="3oHLR1JAqA0yYfKcVh4d-211" value="" style="verticalLabelPosition=bottom;verticalAlign=top;html=1;shape=mxgraph.flowchart.on-page_reference;fillColor=#000000;" vertex="1" parent="3oHLR1JAqA0yYfKcVh4d-207">
          <mxGeometry x="19" y="8" width="2" height="2" as="geometry" />
        </mxCell>
        <mxCell id="3oHLR1JAqA0yYfKcVh4d-212" value="" style="verticalLabelPosition=bottom;verticalAlign=top;html=1;shape=mxgraph.flowchart.on-page_reference;fillColor=#000000;" vertex="1" parent="3oHLR1JAqA0yYfKcVh4d-207">
          <mxGeometry x="19" y="30" width="2" height="2" as="geometry" />
        </mxCell>
        <mxCell id="3oHLR1JAqA0yYfKcVh4d-213" style="edgeStyle=orthogonalEdgeStyle;rounded=0;orthogonalLoop=1;jettySize=auto;html=1;entryX=0.5;entryY=1;entryDx=0;entryDy=0;" edge="1" parent="1" source="3oHLR1JAqA0yYfKcVh4d-214" target="3oHLR1JAqA0yYfKcVh4d-223">
          <mxGeometry relative="1" as="geometry" />
        </mxCell>
        <mxCell id="3oHLR1JAqA0yYfKcVh4d-214" value="$$b$$" style="whiteSpace=wrap;html=1;aspect=fixed;fillColor=#BBB1BF;strokeColor=#9673a6;fontSize=16;" vertex="1" parent="1">
          <mxGeometry x="1611.5" y="3060.5" width="45" height="45" as="geometry" />
        </mxCell>
        <mxCell id="3oHLR1JAqA0yYfKcVh4d-215" value="$$1$$" style="text;html=1;align=center;verticalAlign=middle;resizable=0;points=[];autosize=1;fontSize=10;" vertex="1" parent="1">
          <mxGeometry x="1498" y="2857" width="46" height="24" as="geometry" />
        </mxCell>
        <mxCell id="3oHLR1JAqA0yYfKcVh4d-216" value="$$2$$" style="text;html=1;align=center;verticalAlign=middle;resizable=0;points=[];autosize=1;strokeColor=none;fillColor=none;" vertex="1" parent="1">
          <mxGeometry x="1494.5" y="2977" width="51" height="26" as="geometry" />
        </mxCell>
        <mxCell id="3oHLR1JAqA0yYfKcVh4d-218" style="edgeStyle=orthogonalEdgeStyle;rounded=0;orthogonalLoop=1;jettySize=auto;html=1;entryX=0.5;entryY=1;entryDx=0;entryDy=0;" edge="1" parent="1" source="3oHLR1JAqA0yYfKcVh4d-219" target="3oHLR1JAqA0yYfKcVh4d-229">
          <mxGeometry relative="1" as="geometry" />
        </mxCell>
        <mxCell id="3oHLR1JAqA0yYfKcVh4d-219" value="$$y$$" style="whiteSpace=wrap;html=1;aspect=fixed;fillColor=#BBB1BF;strokeColor=#9673a6;fontSize=16;" vertex="1" parent="1">
          <mxGeometry x="1611.5" y="3218" width="45" height="45" as="geometry" />
        </mxCell>
        <mxCell id="3oHLR1JAqA0yYfKcVh4d-220" value="$$1$$" style="text;html=1;align=center;verticalAlign=middle;resizable=0;points=[];autosize=1;strokeColor=none;fillColor=none;fontSize=10;" vertex="1" parent="1">
          <mxGeometry x="1594.5" y="3213" width="46" height="24" as="geometry" />
        </mxCell>
        <mxCell id="3oHLR1JAqA0yYfKcVh4d-221" value="" style="group" vertex="1" connectable="0" parent="1">
          <mxGeometry x="1614" y="2984" width="40" height="40" as="geometry" />
        </mxCell>
        <mxCell id="3oHLR1JAqA0yYfKcVh4d-223" value="" style="ellipse;whiteSpace=wrap;html=1;aspect=fixed;fillColor=#ffe6cc;strokeColor=#d79b00;" vertex="1" parent="3oHLR1JAqA0yYfKcVh4d-221">
          <mxGeometry width="40" height="40" as="geometry" />
        </mxCell>
        <mxCell id="3oHLR1JAqA0yYfKcVh4d-224" value="" style="endArrow=none;html=1;rounded=0;" edge="1" parent="3oHLR1JAqA0yYfKcVh4d-221">
          <mxGeometry width="50" height="50" relative="1" as="geometry">
            <mxPoint x="4" y="20" as="sourcePoint" />
            <mxPoint x="37" y="20" as="targetPoint" />
          </mxGeometry>
        </mxCell>
        <mxCell id="3oHLR1JAqA0yYfKcVh4d-225" value="" style="verticalLabelPosition=bottom;verticalAlign=top;html=1;shape=mxgraph.flowchart.on-page_reference;fillColor=#000000;" vertex="1" parent="3oHLR1JAqA0yYfKcVh4d-221">
          <mxGeometry x="19" y="8" width="2" height="2" as="geometry" />
        </mxCell>
        <mxCell id="3oHLR1JAqA0yYfKcVh4d-226" value="" style="verticalLabelPosition=bottom;verticalAlign=top;html=1;shape=mxgraph.flowchart.on-page_reference;fillColor=#000000;" vertex="1" parent="3oHLR1JAqA0yYfKcVh4d-221">
          <mxGeometry x="19" y="30" width="2" height="2" as="geometry" />
        </mxCell>
        <mxCell id="3oHLR1JAqA0yYfKcVh4d-227" value="" style="group" vertex="1" connectable="0" parent="1">
          <mxGeometry x="1614" y="3141" width="40" height="40" as="geometry" />
        </mxCell>
        <mxCell id="3oHLR1JAqA0yYfKcVh4d-229" value="" style="ellipse;whiteSpace=wrap;html=1;aspect=fixed;fillColor=#ffe6cc;strokeColor=#d79b00;" vertex="1" parent="3oHLR1JAqA0yYfKcVh4d-227">
          <mxGeometry width="40" height="40" as="geometry" />
        </mxCell>
        <mxCell id="3oHLR1JAqA0yYfKcVh4d-230" value="" style="endArrow=none;html=1;rounded=0;" edge="1" parent="3oHLR1JAqA0yYfKcVh4d-227">
          <mxGeometry width="50" height="50" relative="1" as="geometry">
            <mxPoint x="4" y="20" as="sourcePoint" />
            <mxPoint x="37" y="20" as="targetPoint" />
          </mxGeometry>
        </mxCell>
        <mxCell id="3oHLR1JAqA0yYfKcVh4d-231" value="" style="verticalLabelPosition=bottom;verticalAlign=top;html=1;shape=mxgraph.flowchart.on-page_reference;fillColor=#000000;" vertex="1" parent="3oHLR1JAqA0yYfKcVh4d-227">
          <mxGeometry x="19" y="8" width="2" height="2" as="geometry" />
        </mxCell>
        <mxCell id="3oHLR1JAqA0yYfKcVh4d-232" value="" style="verticalLabelPosition=bottom;verticalAlign=top;html=1;shape=mxgraph.flowchart.on-page_reference;fillColor=#000000;" vertex="1" parent="3oHLR1JAqA0yYfKcVh4d-227">
          <mxGeometry x="19" y="30" width="2" height="2" as="geometry" />
        </mxCell>
        <mxCell id="3oHLR1JAqA0yYfKcVh4d-233" value="" style="group" vertex="1" connectable="0" parent="1">
          <mxGeometry x="1742" y="3141" width="40" height="40" as="geometry" />
        </mxCell>
        <mxCell id="3oHLR1JAqA0yYfKcVh4d-234" value="" style="ellipse;whiteSpace=wrap;html=1;aspect=fixed;fillColor=#fad9d5;strokeColor=#ae4132;" vertex="1" parent="3oHLR1JAqA0yYfKcVh4d-233">
          <mxGeometry width="40" height="40" as="geometry" />
        </mxCell>
        <mxCell id="3oHLR1JAqA0yYfKcVh4d-235" value="" style="pointerEvents=1;verticalLabelPosition=bottom;shadow=0;dashed=0;align=center;html=1;verticalAlign=top;shape=mxgraph.electrical.waveforms.sine_wave;" vertex="1" parent="3oHLR1JAqA0yYfKcVh4d-233">
          <mxGeometry x="9" y="11.46" width="22" height="17.09" as="geometry" />
        </mxCell>
        <mxCell id="3oHLR1JAqA0yYfKcVh4d-236" style="edgeStyle=orthogonalEdgeStyle;rounded=0;orthogonalLoop=1;jettySize=auto;html=1;entryX=0;entryY=0.5;entryDx=0;entryDy=0;" edge="1" parent="1" source="3oHLR1JAqA0yYfKcVh4d-237" target="3oHLR1JAqA0yYfKcVh4d-204">
          <mxGeometry relative="1" as="geometry" />
        </mxCell>
        <mxCell id="3oHLR1JAqA0yYfKcVh4d-237" value="" style="shape=lineEllipse;perimeter=ellipsePerimeter;whiteSpace=wrap;html=1;backgroundOutline=1;fillColor=#f5f5f5;fontColor=#333333;strokeColor=#666666;" vertex="1" parent="1">
          <mxGeometry x="1420" y="2984" width="40" height="40" as="geometry" />
        </mxCell>
        <mxCell id="3oHLR1JAqA0yYfKcVh4d-239" value="$$1$$" style="text;html=1;align=center;verticalAlign=middle;resizable=0;points=[];autosize=1;strokeColor=none;fillColor=none;fontSize=10;" vertex="1" parent="1">
          <mxGeometry x="1594" y="3054.5" width="46" height="24" as="geometry" />
        </mxCell>
        <mxCell id="3oHLR1JAqA0yYfKcVh4d-240" value="$$c$$" style="whiteSpace=wrap;html=1;aspect=fixed;fillColor=#8B848F;strokeColor=#9673a6;fontSize=16;" vertex="1" parent="1">
          <mxGeometry x="1210" y="3270" width="45" height="45" as="geometry" />
        </mxCell>
        <mxCell id="3oHLR1JAqA0yYfKcVh4d-241" style="edgeStyle=orthogonalEdgeStyle;rounded=0;orthogonalLoop=1;jettySize=auto;html=1;entryX=0.5;entryY=0;entryDx=0;entryDy=0;" edge="1" parent="1" source="3oHLR1JAqA0yYfKcVh4d-242">
          <mxGeometry relative="1" as="geometry">
            <mxPoint x="1440" y="3440" as="targetPoint" />
          </mxGeometry>
        </mxCell>
        <mxCell id="3oHLR1JAqA0yYfKcVh4d-242" value="" style="verticalLabelPosition=bottom;verticalAlign=top;html=1;shape=mxgraph.flowchart.or;fontSize=16;fillColor=#BDBDBD;strokeColor=#000000;" vertex="1" parent="1">
          <mxGeometry x="1320" y="3350" width="40" height="40" as="geometry" />
        </mxCell>
        <mxCell id="3oHLR1JAqA0yYfKcVh4d-243" value="$$f$$" style="whiteSpace=wrap;html=1;aspect=fixed;fillColor=#8B848F;strokeColor=#9673a6;fontSize=16;" vertex="1" parent="1">
          <mxGeometry x="1210" y="3420" width="45" height="45" as="geometry" />
        </mxCell>
        <mxCell id="3oHLR1JAqA0yYfKcVh4d-244" value="$$z$$" style="whiteSpace=wrap;html=1;aspect=fixed;fillColor=#8B848F;strokeColor=#9673a6;fontSize=16;" vertex="1" parent="1">
          <mxGeometry x="1210" y="3555" width="45" height="45" as="geometry" />
        </mxCell>
        <mxCell id="3oHLR1JAqA0yYfKcVh4d-245" style="edgeStyle=orthogonalEdgeStyle;rounded=0;orthogonalLoop=1;jettySize=auto;html=1;entryX=0.5;entryY=0;entryDx=0;entryDy=0;entryPerimeter=0;" edge="1" parent="1" source="3oHLR1JAqA0yYfKcVh4d-240" target="3oHLR1JAqA0yYfKcVh4d-242">
          <mxGeometry relative="1" as="geometry" />
        </mxCell>
        <mxCell id="3oHLR1JAqA0yYfKcVh4d-246" style="edgeStyle=orthogonalEdgeStyle;rounded=0;orthogonalLoop=1;jettySize=auto;html=1;entryX=0.5;entryY=1;entryDx=0;entryDy=0;entryPerimeter=0;" edge="1" parent="1" source="3oHLR1JAqA0yYfKcVh4d-243" target="3oHLR1JAqA0yYfKcVh4d-242">
          <mxGeometry relative="1" as="geometry" />
        </mxCell>
        <mxCell id="3oHLR1JAqA0yYfKcVh4d-247" style="edgeStyle=orthogonalEdgeStyle;rounded=0;orthogonalLoop=1;jettySize=auto;html=1;entryX=0.5;entryY=1;entryDx=0;entryDy=0;" edge="1" parent="1" source="3oHLR1JAqA0yYfKcVh4d-248">
          <mxGeometry relative="1" as="geometry">
            <mxPoint x="1440" y="3480" as="targetPoint" />
          </mxGeometry>
        </mxCell>
        <mxCell id="3oHLR1JAqA0yYfKcVh4d-248" value="" style="verticalLabelPosition=bottom;verticalAlign=top;html=1;shape=mxgraph.flowchart.or;fontSize=16;fillColor=#BDBDBD;strokeColor=#000000;" vertex="1" parent="1">
          <mxGeometry x="1320" y="3515" width="40" height="40" as="geometry" />
        </mxCell>
        <mxCell id="3oHLR1JAqA0yYfKcVh4d-249" style="edgeStyle=orthogonalEdgeStyle;rounded=0;orthogonalLoop=1;jettySize=auto;html=1;entryX=0.5;entryY=1;entryDx=0;entryDy=0;entryPerimeter=0;" edge="1" parent="1" source="3oHLR1JAqA0yYfKcVh4d-244" target="3oHLR1JAqA0yYfKcVh4d-248">
          <mxGeometry relative="1" as="geometry" />
        </mxCell>
        <mxCell id="3oHLR1JAqA0yYfKcVh4d-250" style="edgeStyle=orthogonalEdgeStyle;rounded=0;orthogonalLoop=1;jettySize=auto;html=1;entryX=0;entryY=0.5;entryDx=0;entryDy=0;entryPerimeter=0;exitX=0.5;exitY=0;exitDx=0;exitDy=0;" edge="1" parent="1" source="3oHLR1JAqA0yYfKcVh4d-244" target="3oHLR1JAqA0yYfKcVh4d-248">
          <mxGeometry relative="1" as="geometry" />
        </mxCell>
        <mxCell id="3oHLR1JAqA0yYfKcVh4d-251" style="edgeStyle=orthogonalEdgeStyle;rounded=0;orthogonalLoop=1;jettySize=auto;html=1;entryX=0;entryY=0.5;entryDx=0;entryDy=0;exitX=0.5;exitY=0;exitDx=0;exitDy=0;" edge="1" parent="1" source="3oHLR1JAqA0yYfKcVh4d-254" target="3oHLR1JAqA0yYfKcVh4d-259">
          <mxGeometry relative="1" as="geometry" />
        </mxCell>
        <mxCell id="3oHLR1JAqA0yYfKcVh4d-252" style="edgeStyle=orthogonalEdgeStyle;rounded=0;orthogonalLoop=1;jettySize=auto;html=1;entryX=0;entryY=0.5;entryDx=0;entryDy=0;" edge="1" parent="1" source="3oHLR1JAqA0yYfKcVh4d-254" target="3oHLR1JAqA0yYfKcVh4d-273">
          <mxGeometry relative="1" as="geometry" />
        </mxCell>
        <mxCell id="3oHLR1JAqA0yYfKcVh4d-253" style="edgeStyle=orthogonalEdgeStyle;rounded=0;orthogonalLoop=1;jettySize=auto;html=1;entryX=0.5;entryY=0;entryDx=0;entryDy=0;" edge="1" parent="1" source="3oHLR1JAqA0yYfKcVh4d-254" target="3oHLR1JAqA0yYfKcVh4d-279">
          <mxGeometry relative="1" as="geometry">
            <Array as="points">
              <mxPoint x="1537" y="3573" />
              <mxPoint x="1633" y="3573" />
              <mxPoint x="1633" y="3597" />
            </Array>
          </mxGeometry>
        </mxCell>
        <mxCell id="3oHLR1JAqA0yYfKcVh4d-254" value="" style="whiteSpace=wrap;html=1;fillColor=#bac8d3;strokeColor=#23445d;" vertex="1" parent="1">
          <mxGeometry x="1514" y="3437.5" width="45" height="45" as="geometry" />
        </mxCell>
        <mxCell id="3oHLR1JAqA0yYfKcVh4d-255" style="edgeStyle=orthogonalEdgeStyle;rounded=0;orthogonalLoop=1;jettySize=auto;html=1;" edge="1" parent="1" source="3oHLR1JAqA0yYfKcVh4d-256" target="3oHLR1JAqA0yYfKcVh4d-259">
          <mxGeometry relative="1" as="geometry" />
        </mxCell>
        <mxCell id="3oHLR1JAqA0yYfKcVh4d-256" value="$$f$$" style="whiteSpace=wrap;html=1;aspect=fixed;fillColor=#8B848F;strokeColor=#9673a6;fontSize=16;" vertex="1" parent="1">
          <mxGeometry x="1514" y="3315" width="45" height="45" as="geometry" />
        </mxCell>
        <mxCell id="3oHLR1JAqA0yYfKcVh4d-257" value="" style="group" vertex="1" connectable="0" parent="1">
          <mxGeometry x="1614" y="3375" width="40" height="40" as="geometry" />
        </mxCell>
        <mxCell id="3oHLR1JAqA0yYfKcVh4d-259" value="" style="ellipse;whiteSpace=wrap;html=1;aspect=fixed;fillColor=#ffe6cc;strokeColor=#d79b00;" vertex="1" parent="3oHLR1JAqA0yYfKcVh4d-257">
          <mxGeometry width="40" height="40" as="geometry" />
        </mxCell>
        <mxCell id="3oHLR1JAqA0yYfKcVh4d-260" value="" style="endArrow=none;html=1;rounded=0;" edge="1" parent="3oHLR1JAqA0yYfKcVh4d-257">
          <mxGeometry width="50" height="50" relative="1" as="geometry">
            <mxPoint x="4" y="20" as="sourcePoint" />
            <mxPoint x="37" y="20" as="targetPoint" />
          </mxGeometry>
        </mxCell>
        <mxCell id="3oHLR1JAqA0yYfKcVh4d-261" value="" style="verticalLabelPosition=bottom;verticalAlign=top;html=1;shape=mxgraph.flowchart.on-page_reference;fillColor=#000000;" vertex="1" parent="3oHLR1JAqA0yYfKcVh4d-257">
          <mxGeometry x="19" y="8" width="2" height="2" as="geometry" />
        </mxCell>
        <mxCell id="3oHLR1JAqA0yYfKcVh4d-262" value="" style="verticalLabelPosition=bottom;verticalAlign=top;html=1;shape=mxgraph.flowchart.on-page_reference;fillColor=#000000;" vertex="1" parent="3oHLR1JAqA0yYfKcVh4d-257">
          <mxGeometry x="19" y="30" width="2" height="2" as="geometry" />
        </mxCell>
        <mxCell id="3oHLR1JAqA0yYfKcVh4d-263" style="edgeStyle=orthogonalEdgeStyle;rounded=0;orthogonalLoop=1;jettySize=auto;html=1;entryX=0.5;entryY=1;entryDx=0;entryDy=0;" edge="1" parent="1" source="3oHLR1JAqA0yYfKcVh4d-264" target="3oHLR1JAqA0yYfKcVh4d-273">
          <mxGeometry relative="1" as="geometry" />
        </mxCell>
        <mxCell id="3oHLR1JAqA0yYfKcVh4d-264" value="$$c$$" style="whiteSpace=wrap;html=1;aspect=fixed;fillColor=#8B848F;strokeColor=#9673a6;fontSize=16;" vertex="1" parent="1">
          <mxGeometry x="1611.5" y="3516.5" width="45" height="45" as="geometry" />
        </mxCell>
        <mxCell id="3oHLR1JAqA0yYfKcVh4d-265" value="$$1$$" style="text;html=1;align=center;verticalAlign=middle;resizable=0;points=[];autosize=1;strokeColor=none;fillColor=none;fontSize=10;" vertex="1" parent="1">
          <mxGeometry x="1498" y="3313" width="46" height="24" as="geometry" />
        </mxCell>
        <mxCell id="3oHLR1JAqA0yYfKcVh4d-266" value="$$2$$" style="text;html=1;align=center;verticalAlign=middle;resizable=0;points=[];autosize=1;strokeColor=none;fillColor=none;" vertex="1" parent="1">
          <mxGeometry x="1494.5" y="3433" width="51" height="26" as="geometry" />
        </mxCell>
        <mxCell id="3oHLR1JAqA0yYfKcVh4d-268" style="edgeStyle=orthogonalEdgeStyle;rounded=0;orthogonalLoop=1;jettySize=auto;html=1;entryX=0.5;entryY=1;entryDx=0;entryDy=0;" edge="1" parent="1" source="3oHLR1JAqA0yYfKcVh4d-269" target="3oHLR1JAqA0yYfKcVh4d-279">
          <mxGeometry relative="1" as="geometry" />
        </mxCell>
        <mxCell id="3oHLR1JAqA0yYfKcVh4d-269" value="$$z$$" style="whiteSpace=wrap;html=1;aspect=fixed;fillColor=#8B848F;strokeColor=#9673a6;fontSize=16;" vertex="1" parent="1">
          <mxGeometry x="1611.5" y="3674" width="45" height="45" as="geometry" />
        </mxCell>
        <mxCell id="3oHLR1JAqA0yYfKcVh4d-270" value="$$1$$" style="text;html=1;align=center;verticalAlign=middle;resizable=0;points=[];autosize=1;strokeColor=none;fillColor=none;fontSize=10;" vertex="1" parent="1">
          <mxGeometry x="1594.5" y="3669" width="46" height="24" as="geometry" />
        </mxCell>
        <mxCell id="3oHLR1JAqA0yYfKcVh4d-271" value="" style="group" vertex="1" connectable="0" parent="1">
          <mxGeometry x="1614" y="3440" width="40" height="40" as="geometry" />
        </mxCell>
        <mxCell id="3oHLR1JAqA0yYfKcVh4d-273" value="" style="ellipse;whiteSpace=wrap;html=1;aspect=fixed;fillColor=#ffe6cc;strokeColor=#d79b00;" vertex="1" parent="3oHLR1JAqA0yYfKcVh4d-271">
          <mxGeometry width="40" height="40" as="geometry" />
        </mxCell>
        <mxCell id="3oHLR1JAqA0yYfKcVh4d-274" value="" style="endArrow=none;html=1;rounded=0;" edge="1" parent="3oHLR1JAqA0yYfKcVh4d-271">
          <mxGeometry width="50" height="50" relative="1" as="geometry">
            <mxPoint x="4" y="20" as="sourcePoint" />
            <mxPoint x="37" y="20" as="targetPoint" />
          </mxGeometry>
        </mxCell>
        <mxCell id="3oHLR1JAqA0yYfKcVh4d-275" value="" style="verticalLabelPosition=bottom;verticalAlign=top;html=1;shape=mxgraph.flowchart.on-page_reference;fillColor=#000000;" vertex="1" parent="3oHLR1JAqA0yYfKcVh4d-271">
          <mxGeometry x="19" y="8" width="2" height="2" as="geometry" />
        </mxCell>
        <mxCell id="3oHLR1JAqA0yYfKcVh4d-276" value="" style="verticalLabelPosition=bottom;verticalAlign=top;html=1;shape=mxgraph.flowchart.on-page_reference;fillColor=#000000;" vertex="1" parent="3oHLR1JAqA0yYfKcVh4d-271">
          <mxGeometry x="19" y="30" width="2" height="2" as="geometry" />
        </mxCell>
        <mxCell id="3oHLR1JAqA0yYfKcVh4d-277" value="" style="group" vertex="1" connectable="0" parent="1">
          <mxGeometry x="1614" y="3597" width="40" height="40" as="geometry" />
        </mxCell>
        <mxCell id="3oHLR1JAqA0yYfKcVh4d-279" value="" style="ellipse;whiteSpace=wrap;html=1;aspect=fixed;fillColor=#ffe6cc;strokeColor=#d79b00;" vertex="1" parent="3oHLR1JAqA0yYfKcVh4d-277">
          <mxGeometry width="40" height="40" as="geometry" />
        </mxCell>
        <mxCell id="3oHLR1JAqA0yYfKcVh4d-280" value="" style="endArrow=none;html=1;rounded=0;" edge="1" parent="3oHLR1JAqA0yYfKcVh4d-277">
          <mxGeometry width="50" height="50" relative="1" as="geometry">
            <mxPoint x="4" y="20" as="sourcePoint" />
            <mxPoint x="37" y="20" as="targetPoint" />
          </mxGeometry>
        </mxCell>
        <mxCell id="3oHLR1JAqA0yYfKcVh4d-281" value="" style="verticalLabelPosition=bottom;verticalAlign=top;html=1;shape=mxgraph.flowchart.on-page_reference;fillColor=#000000;" vertex="1" parent="3oHLR1JAqA0yYfKcVh4d-277">
          <mxGeometry x="19" y="8" width="2" height="2" as="geometry" />
        </mxCell>
        <mxCell id="3oHLR1JAqA0yYfKcVh4d-282" value="" style="verticalLabelPosition=bottom;verticalAlign=top;html=1;shape=mxgraph.flowchart.on-page_reference;fillColor=#000000;" vertex="1" parent="3oHLR1JAqA0yYfKcVh4d-277">
          <mxGeometry x="19" y="30" width="2" height="2" as="geometry" />
        </mxCell>
        <mxCell id="3oHLR1JAqA0yYfKcVh4d-286" style="edgeStyle=orthogonalEdgeStyle;rounded=0;orthogonalLoop=1;jettySize=auto;html=1;entryX=0;entryY=0.5;entryDx=0;entryDy=0;" edge="1" parent="1" source="3oHLR1JAqA0yYfKcVh4d-287" target="3oHLR1JAqA0yYfKcVh4d-254">
          <mxGeometry relative="1" as="geometry" />
        </mxCell>
        <mxCell id="3oHLR1JAqA0yYfKcVh4d-287" value="" style="shape=lineEllipse;perimeter=ellipsePerimeter;whiteSpace=wrap;html=1;backgroundOutline=1;fillColor=#f5f5f5;fontColor=#333333;strokeColor=#666666;" vertex="1" parent="1">
          <mxGeometry x="1420" y="3440" width="40" height="40" as="geometry" />
        </mxCell>
        <mxCell id="3oHLR1JAqA0yYfKcVh4d-289" value="$$1$$" style="text;html=1;align=center;verticalAlign=middle;resizable=0;points=[];autosize=1;strokeColor=none;fillColor=none;fontSize=10;" vertex="1" parent="1">
          <mxGeometry x="1594" y="3510.5" width="46" height="24" as="geometry" />
        </mxCell>
        <mxCell id="3oHLR1JAqA0yYfKcVh4d-292" value="" style="strokeWidth=2;html=1;shape=mxgraph.flowchart.annotation_1;align=left;pointerEvents=1;" vertex="1" parent="1">
          <mxGeometry x="1900" y="2818" width="12" height="413.5" as="geometry" />
        </mxCell>
        <mxCell id="3oHLR1JAqA0yYfKcVh4d-295" value="" style="strokeWidth=2;html=1;shape=mxgraph.flowchart.annotation_1;align=left;pointerEvents=1;direction=west;" vertex="1" parent="1">
          <mxGeometry x="2333" y="2818" width="12" height="413.5" as="geometry" />
        </mxCell>
        <mxCell id="3oHLR1JAqA0yYfKcVh4d-296" value="" style="whiteSpace=wrap;html=1;aspect=fixed;fillColor=#dae8fc;strokeColor=#6c8ebf;" vertex="1" parent="1">
          <mxGeometry x="1927" y="2824.5" width="29" height="29" as="geometry" />
        </mxCell>
        <mxCell id="3oHLR1JAqA0yYfKcVh4d-299" value="0" style="whiteSpace=wrap;html=1;aspect=fixed;fontSize=18;" vertex="1" parent="1">
          <mxGeometry x="1927" y="2899.5" width="29" height="29" as="geometry" />
        </mxCell>
        <mxCell id="3oHLR1JAqA0yYfKcVh4d-300" value="0" style="whiteSpace=wrap;html=1;aspect=fixed;fontSize=18;" vertex="1" parent="1">
          <mxGeometry x="1927" y="2973.5" width="29" height="29" as="geometry" />
        </mxCell>
        <mxCell id="3oHLR1JAqA0yYfKcVh4d-302" value="" style="whiteSpace=wrap;html=1;aspect=fixed;fillColor=#b1ddf0;strokeColor=#10739e;" vertex="1" parent="1">
          <mxGeometry x="1927" y="3047.5" width="29" height="29" as="geometry" />
        </mxCell>
        <mxCell id="3oHLR1JAqA0yYfKcVh4d-303" value="&lt;font style=&quot;font-size: 18px;&quot;&gt;0&lt;/font&gt;" style="whiteSpace=wrap;html=1;aspect=fixed;" vertex="1" parent="1">
          <mxGeometry x="1927" y="3122.5" width="29" height="29" as="geometry" />
        </mxCell>
        <mxCell id="3oHLR1JAqA0yYfKcVh4d-304" value="&lt;font style=&quot;font-size: 18px;&quot;&gt;0&lt;/font&gt;" style="whiteSpace=wrap;html=1;aspect=fixed;" vertex="1" parent="1">
          <mxGeometry x="1927" y="3196.5" width="29" height="29" as="geometry" />
        </mxCell>
        <mxCell id="3oHLR1JAqA0yYfKcVh4d-306" value="" style="whiteSpace=wrap;html=1;aspect=fixed;fillColor=#dae8fc;strokeColor=#6c8ebf;" vertex="1" parent="1">
          <mxGeometry x="2002" y="2899" width="29" height="29" as="geometry" />
        </mxCell>
        <mxCell id="3oHLR1JAqA0yYfKcVh4d-307" value="0" style="whiteSpace=wrap;html=1;aspect=fixed;fontSize=18;" vertex="1" parent="1">
          <mxGeometry x="2002" y="2824" width="29" height="29" as="geometry" />
        </mxCell>
        <mxCell id="3oHLR1JAqA0yYfKcVh4d-308" value="0" style="whiteSpace=wrap;html=1;aspect=fixed;fontSize=18;" vertex="1" parent="1">
          <mxGeometry x="2002" y="2973.5" width="29" height="29" as="geometry" />
        </mxCell>
        <mxCell id="3oHLR1JAqA0yYfKcVh4d-309" value="" style="whiteSpace=wrap;html=1;aspect=fixed;fillColor=#b1ddf0;strokeColor=#10739e;" vertex="1" parent="1">
          <mxGeometry x="2002" y="3122" width="29" height="29" as="geometry" />
        </mxCell>
        <mxCell id="3oHLR1JAqA0yYfKcVh4d-310" value="&lt;font style=&quot;font-size: 18px;&quot;&gt;0&lt;/font&gt;" style="whiteSpace=wrap;html=1;aspect=fixed;" vertex="1" parent="1">
          <mxGeometry x="2002" y="3047.5" width="29" height="29" as="geometry" />
        </mxCell>
        <mxCell id="3oHLR1JAqA0yYfKcVh4d-311" value="&lt;font style=&quot;font-size: 18px;&quot;&gt;0&lt;/font&gt;" style="whiteSpace=wrap;html=1;aspect=fixed;" vertex="1" parent="1">
          <mxGeometry x="2002" y="3196.5" width="29" height="29" as="geometry" />
        </mxCell>
        <mxCell id="3oHLR1JAqA0yYfKcVh4d-325" value="" style="whiteSpace=wrap;html=1;aspect=fixed;fillColor=#dae8fc;strokeColor=#6c8ebf;" vertex="1" parent="1">
          <mxGeometry x="2072" y="2973.25" width="29" height="29" as="geometry" />
        </mxCell>
        <mxCell id="3oHLR1JAqA0yYfKcVh4d-326" value="0" style="whiteSpace=wrap;html=1;aspect=fixed;fontSize=18;" vertex="1" parent="1">
          <mxGeometry x="2072" y="2899" width="29" height="29" as="geometry" />
        </mxCell>
        <mxCell id="3oHLR1JAqA0yYfKcVh4d-327" value="0" style="whiteSpace=wrap;html=1;aspect=fixed;fontSize=18;" vertex="1" parent="1">
          <mxGeometry x="2072" y="2824" width="29" height="29" as="geometry" />
        </mxCell>
        <mxCell id="3oHLR1JAqA0yYfKcVh4d-328" value="" style="whiteSpace=wrap;html=1;aspect=fixed;fillColor=#b1ddf0;strokeColor=#10739e;" vertex="1" parent="1">
          <mxGeometry x="2072" y="3196.5" width="29" height="29" as="geometry" />
        </mxCell>
        <mxCell id="3oHLR1JAqA0yYfKcVh4d-329" value="&lt;font style=&quot;font-size: 18px;&quot;&gt;0&lt;/font&gt;" style="whiteSpace=wrap;html=1;aspect=fixed;" vertex="1" parent="1">
          <mxGeometry x="2072" y="3122.25" width="29" height="29" as="geometry" />
        </mxCell>
        <mxCell id="3oHLR1JAqA0yYfKcVh4d-330" value="&lt;font style=&quot;font-size: 18px;&quot;&gt;0&lt;/font&gt;" style="whiteSpace=wrap;html=1;aspect=fixed;" vertex="1" parent="1">
          <mxGeometry x="2072" y="3047.5" width="29" height="29" as="geometry" />
        </mxCell>
        <mxCell id="3oHLR1JAqA0yYfKcVh4d-331" value="" style="whiteSpace=wrap;html=1;aspect=fixed;fillColor=#b1ddf0;strokeColor=#10739e;" vertex="1" parent="1">
          <mxGeometry x="2143" y="2824.25" width="29" height="29" as="geometry" />
        </mxCell>
        <mxCell id="3oHLR1JAqA0yYfKcVh4d-332" value="0" style="whiteSpace=wrap;html=1;aspect=fixed;fontSize=18;" vertex="1" parent="1">
          <mxGeometry x="2143" y="2899.25" width="29" height="29" as="geometry" />
        </mxCell>
        <mxCell id="3oHLR1JAqA0yYfKcVh4d-333" value="0" style="whiteSpace=wrap;html=1;aspect=fixed;fontSize=18;" vertex="1" parent="1">
          <mxGeometry x="2143" y="2973.25" width="29" height="29" as="geometry" />
        </mxCell>
        <mxCell id="3oHLR1JAqA0yYfKcVh4d-334" value="" style="whiteSpace=wrap;html=1;aspect=fixed;fillColor=#b0e3e6;strokeColor=#0e8088;" vertex="1" parent="1">
          <mxGeometry x="2143" y="3047.25" width="29" height="29" as="geometry" />
        </mxCell>
        <mxCell id="3oHLR1JAqA0yYfKcVh4d-335" value="&lt;font style=&quot;font-size: 18px;&quot;&gt;0&lt;/font&gt;" style="whiteSpace=wrap;html=1;aspect=fixed;" vertex="1" parent="1">
          <mxGeometry x="2143" y="3122.25" width="29" height="29" as="geometry" />
        </mxCell>
        <mxCell id="3oHLR1JAqA0yYfKcVh4d-336" value="&lt;font style=&quot;font-size: 18px;&quot;&gt;0&lt;/font&gt;" style="whiteSpace=wrap;html=1;aspect=fixed;" vertex="1" parent="1">
          <mxGeometry x="2143" y="3196.25" width="29" height="29" as="geometry" />
        </mxCell>
        <mxCell id="3oHLR1JAqA0yYfKcVh4d-337" value="" style="whiteSpace=wrap;html=1;aspect=fixed;fillColor=#b1ddf0;strokeColor=#10739e;" vertex="1" parent="1">
          <mxGeometry x="2216" y="2899.25" width="29" height="29" as="geometry" />
        </mxCell>
        <mxCell id="3oHLR1JAqA0yYfKcVh4d-338" value="0" style="whiteSpace=wrap;html=1;aspect=fixed;fontSize=18;" vertex="1" parent="1">
          <mxGeometry x="2216" y="2824" width="29" height="29" as="geometry" />
        </mxCell>
        <mxCell id="3oHLR1JAqA0yYfKcVh4d-339" value="0" style="whiteSpace=wrap;html=1;aspect=fixed;fontSize=18;" vertex="1" parent="1">
          <mxGeometry x="2216" y="2973.25" width="29" height="29" as="geometry" />
        </mxCell>
        <mxCell id="3oHLR1JAqA0yYfKcVh4d-340" value="" style="whiteSpace=wrap;html=1;aspect=fixed;fillColor=#b0e3e6;strokeColor=#0e8088;" vertex="1" parent="1">
          <mxGeometry x="2216" y="3121.5" width="29" height="29" as="geometry" />
        </mxCell>
        <mxCell id="3oHLR1JAqA0yYfKcVh4d-341" value="&lt;font style=&quot;font-size: 18px;&quot;&gt;0&lt;/font&gt;" style="whiteSpace=wrap;html=1;aspect=fixed;" vertex="1" parent="1">
          <mxGeometry x="2216" y="3047" width="29" height="29" as="geometry" />
        </mxCell>
        <mxCell id="3oHLR1JAqA0yYfKcVh4d-342" value="&lt;font style=&quot;font-size: 18px;&quot;&gt;0&lt;/font&gt;" style="whiteSpace=wrap;html=1;aspect=fixed;" vertex="1" parent="1">
          <mxGeometry x="2216" y="3196.25" width="29" height="29" as="geometry" />
        </mxCell>
        <mxCell id="3oHLR1JAqA0yYfKcVh4d-343" value="" style="whiteSpace=wrap;html=1;aspect=fixed;fillColor=#b1ddf0;strokeColor=#10739e;" vertex="1" parent="1">
          <mxGeometry x="2287" y="2972.75" width="29" height="29" as="geometry" />
        </mxCell>
        <mxCell id="3oHLR1JAqA0yYfKcVh4d-344" value="0" style="whiteSpace=wrap;html=1;aspect=fixed;fontSize=18;" vertex="1" parent="1">
          <mxGeometry x="2287" y="2898.5" width="29" height="29" as="geometry" />
        </mxCell>
        <mxCell id="3oHLR1JAqA0yYfKcVh4d-345" value="0" style="whiteSpace=wrap;html=1;aspect=fixed;fontSize=18;" vertex="1" parent="1">
          <mxGeometry x="2287" y="2824.25" width="29" height="29" as="geometry" />
        </mxCell>
        <mxCell id="3oHLR1JAqA0yYfKcVh4d-346" value="" style="whiteSpace=wrap;html=1;aspect=fixed;fillColor=#b0e3e6;strokeColor=#0e8088;" vertex="1" parent="1">
          <mxGeometry x="2287" y="3196" width="29" height="29" as="geometry" />
        </mxCell>
        <mxCell id="3oHLR1JAqA0yYfKcVh4d-347" value="&lt;font style=&quot;font-size: 18px;&quot;&gt;0&lt;/font&gt;" style="whiteSpace=wrap;html=1;aspect=fixed;" vertex="1" parent="1">
          <mxGeometry x="2287" y="3121.5" width="29" height="29" as="geometry" />
        </mxCell>
        <mxCell id="3oHLR1JAqA0yYfKcVh4d-348" value="&lt;font style=&quot;font-size: 18px;&quot;&gt;0&lt;/font&gt;" style="whiteSpace=wrap;html=1;aspect=fixed;" vertex="1" parent="1">
          <mxGeometry x="2287" y="3047" width="29" height="29" as="geometry" />
        </mxCell>
        <mxCell id="3oHLR1JAqA0yYfKcVh4d-349" style="edgeStyle=orthogonalEdgeStyle;rounded=0;orthogonalLoop=1;jettySize=auto;html=1;entryX=0.5;entryY=0;entryDx=0;entryDy=0;strokeColor=#6C8EBF;" edge="1" parent="1" source="3oHLR1JAqA0yYfKcVh4d-149" target="3oHLR1JAqA0yYfKcVh4d-296">
          <mxGeometry relative="1" as="geometry" />
        </mxCell>
        <mxCell id="3oHLR1JAqA0yYfKcVh4d-178" style="edgeStyle=orthogonalEdgeStyle;rounded=0;orthogonalLoop=1;jettySize=auto;html=1;strokeColor=#0E8088;" edge="1" parent="1" source="3oHLR1JAqA0yYfKcVh4d-162" target="3oHLR1JAqA0yYfKcVh4d-334">
          <mxGeometry relative="1" as="geometry">
            <mxPoint x="1754.2380952380952" y="2550" as="targetPoint" />
            <Array as="points">
              <mxPoint x="2196" y="2550" />
              <mxPoint x="2196" y="3062" />
            </Array>
          </mxGeometry>
        </mxCell>
        <mxCell id="3oHLR1JAqA0yYfKcVh4d-179" style="edgeStyle=orthogonalEdgeStyle;rounded=0;orthogonalLoop=1;jettySize=auto;html=1;entryX=0;entryY=0.5;entryDx=0;entryDy=0;" edge="1" parent="1" source="3oHLR1JAqA0yYfKcVh4d-169">
          <mxGeometry relative="1" as="geometry">
            <mxPoint x="1742" y="2707" as="targetPoint" />
          </mxGeometry>
        </mxCell>
        <mxCell id="3oHLR1JAqA0yYfKcVh4d-351" style="edgeStyle=orthogonalEdgeStyle;rounded=0;orthogonalLoop=1;jettySize=auto;html=1;entryX=0;entryY=0.5;entryDx=0;entryDy=0;strokeColor=#10739E;" edge="1" parent="1" target="3oHLR1JAqA0yYfKcVh4d-302">
          <mxGeometry relative="1" as="geometry">
            <mxPoint x="1762" y="2727" as="sourcePoint" />
            <Array as="points">
              <mxPoint x="1762" y="3062" />
            </Array>
          </mxGeometry>
        </mxCell>
        <mxCell id="3oHLR1JAqA0yYfKcVh4d-353" style="edgeStyle=orthogonalEdgeStyle;rounded=0;orthogonalLoop=1;jettySize=auto;html=1;entryX=0.5;entryY=0;entryDx=0;entryDy=0;strokeColor=#10739E;" edge="1" parent="1" target="3oHLR1JAqA0yYfKcVh4d-331">
          <mxGeometry relative="1" as="geometry">
            <mxPoint x="1782" y="2707" as="sourcePoint" />
          </mxGeometry>
        </mxCell>
        <mxCell id="3oHLR1JAqA0yYfKcVh4d-354" style="edgeStyle=orthogonalEdgeStyle;rounded=0;orthogonalLoop=1;jettySize=auto;html=1;entryX=0.5;entryY=0;entryDx=0;entryDy=0;strokeColor=#6C8EBF;" edge="1" parent="1" source="3oHLR1JAqA0yYfKcVh4d-209" target="3oHLR1JAqA0yYfKcVh4d-306">
          <mxGeometry relative="1" as="geometry" />
        </mxCell>
        <mxCell id="3oHLR1JAqA0yYfKcVh4d-222" style="edgeStyle=orthogonalEdgeStyle;rounded=0;orthogonalLoop=1;jettySize=auto;html=1;entryX=0.5;entryY=0;entryDx=0;entryDy=0;strokeColor=#0E8088;" edge="1" parent="1" source="3oHLR1JAqA0yYfKcVh4d-223" target="3oHLR1JAqA0yYfKcVh4d-340">
          <mxGeometry relative="1" as="geometry">
            <mxPoint x="1754.2380952380952" y="3004" as="targetPoint" />
            <Array as="points">
              <mxPoint x="1715" y="3004" />
              <mxPoint x="1715" y="3094" />
              <mxPoint x="2231" y="3094" />
            </Array>
          </mxGeometry>
        </mxCell>
        <mxCell id="3oHLR1JAqA0yYfKcVh4d-228" style="edgeStyle=orthogonalEdgeStyle;rounded=0;orthogonalLoop=1;jettySize=auto;html=1;entryX=0;entryY=0.5;entryDx=0;entryDy=0;" edge="1" parent="1" source="3oHLR1JAqA0yYfKcVh4d-229" target="3oHLR1JAqA0yYfKcVh4d-234">
          <mxGeometry relative="1" as="geometry">
            <mxPoint x="1737" y="3161" as="targetPoint" />
          </mxGeometry>
        </mxCell>
        <mxCell id="3oHLR1JAqA0yYfKcVh4d-356" style="edgeStyle=orthogonalEdgeStyle;rounded=0;orthogonalLoop=1;jettySize=auto;html=1;entryX=0.5;entryY=0;entryDx=0;entryDy=0;strokeColor=#10739E;" edge="1" parent="1" source="3oHLR1JAqA0yYfKcVh4d-234" target="3oHLR1JAqA0yYfKcVh4d-309">
          <mxGeometry relative="1" as="geometry">
            <Array as="points">
              <mxPoint x="1762" y="3107" />
              <mxPoint x="2017" y="3107" />
            </Array>
          </mxGeometry>
        </mxCell>
        <mxCell id="3oHLR1JAqA0yYfKcVh4d-357" style="edgeStyle=orthogonalEdgeStyle;rounded=0;orthogonalLoop=1;jettySize=auto;html=1;entryX=1;entryY=0.5;entryDx=0;entryDy=0;strokeColor=#10739E;" edge="1" parent="1" source="3oHLR1JAqA0yYfKcVh4d-234" target="3oHLR1JAqA0yYfKcVh4d-337">
          <mxGeometry relative="1" as="geometry" />
        </mxCell>
        <mxCell id="3oHLR1JAqA0yYfKcVh4d-258" style="edgeStyle=orthogonalEdgeStyle;rounded=0;orthogonalLoop=1;jettySize=auto;html=1;entryX=0;entryY=0.5;entryDx=0;entryDy=0;strokeColor=#6C8EBF;" edge="1" parent="1" source="3oHLR1JAqA0yYfKcVh4d-259" target="3oHLR1JAqA0yYfKcVh4d-325">
          <mxGeometry relative="1" as="geometry">
            <mxPoint x="1756.6190476190475" y="3395" as="targetPoint" />
            <Array as="points">
              <mxPoint x="2049" y="3395" />
              <mxPoint x="2049" y="2988" />
            </Array>
          </mxGeometry>
        </mxCell>
        <mxCell id="3oHLR1JAqA0yYfKcVh4d-272" style="edgeStyle=orthogonalEdgeStyle;rounded=0;orthogonalLoop=1;jettySize=auto;html=1;entryX=0.5;entryY=1;entryDx=0;entryDy=0;strokeColor=#0E8088;" edge="1" parent="1" source="3oHLR1JAqA0yYfKcVh4d-273" target="3oHLR1JAqA0yYfKcVh4d-346">
          <mxGeometry relative="1" as="geometry">
            <mxPoint x="1754.2380952380952" y="3460" as="targetPoint" />
          </mxGeometry>
        </mxCell>
        <mxCell id="3oHLR1JAqA0yYfKcVh4d-358" style="edgeStyle=orthogonalEdgeStyle;rounded=0;orthogonalLoop=1;jettySize=auto;html=1;entryX=0;entryY=0.5;entryDx=0;entryDy=0;" edge="1" parent="1" source="3oHLR1JAqA0yYfKcVh4d-279">
          <mxGeometry relative="1" as="geometry">
            <mxPoint x="1742" y="3617" as="targetPoint" />
          </mxGeometry>
        </mxCell>
        <mxCell id="3oHLR1JAqA0yYfKcVh4d-359" style="edgeStyle=orthogonalEdgeStyle;rounded=0;orthogonalLoop=1;jettySize=auto;html=1;entryX=0.5;entryY=1;entryDx=0;entryDy=0;exitX=0.5;exitY=0;exitDx=0;exitDy=0;strokeColor=#10739E;" edge="1" parent="1" target="3oHLR1JAqA0yYfKcVh4d-328">
          <mxGeometry relative="1" as="geometry">
            <mxPoint x="1762" y="3597" as="sourcePoint" />
            <Array as="points">
              <mxPoint x="1762" y="3499" />
              <mxPoint x="2087" y="3499" />
            </Array>
          </mxGeometry>
        </mxCell>
        <mxCell id="3oHLR1JAqA0yYfKcVh4d-362" style="edgeStyle=orthogonalEdgeStyle;rounded=0;orthogonalLoop=1;jettySize=auto;html=1;entryX=1;entryY=0.5;entryDx=0;entryDy=0;strokeColor=#10739E;" edge="1" parent="1" target="3oHLR1JAqA0yYfKcVh4d-343">
          <mxGeometry relative="1" as="geometry">
            <mxPoint x="1782" y="3617" as="sourcePoint" />
          </mxGeometry>
        </mxCell>
        <mxCell id="3oHLR1JAqA0yYfKcVh4d-364" value="" style="group" vertex="1" connectable="0" parent="1">
          <mxGeometry x="1741" y="2688" width="40" height="40" as="geometry" />
        </mxCell>
        <mxCell id="3oHLR1JAqA0yYfKcVh4d-365" value="" style="ellipse;whiteSpace=wrap;html=1;aspect=fixed;fillColor=#fad9d5;strokeColor=#ae4132;" vertex="1" parent="3oHLR1JAqA0yYfKcVh4d-364">
          <mxGeometry width="40" height="40" as="geometry" />
        </mxCell>
        <mxCell id="3oHLR1JAqA0yYfKcVh4d-366" value="" style="pointerEvents=1;verticalLabelPosition=bottom;shadow=0;dashed=0;align=center;html=1;verticalAlign=top;shape=mxgraph.electrical.waveforms.sine_wave;" vertex="1" parent="3oHLR1JAqA0yYfKcVh4d-364">
          <mxGeometry x="9" y="11.46" width="22" height="17.09" as="geometry" />
        </mxCell>
        <mxCell id="3oHLR1JAqA0yYfKcVh4d-368" value="" style="group" vertex="1" connectable="0" parent="1">
          <mxGeometry x="1742" y="3597" width="40" height="40" as="geometry" />
        </mxCell>
        <mxCell id="3oHLR1JAqA0yYfKcVh4d-369" value="" style="ellipse;whiteSpace=wrap;html=1;aspect=fixed;fillColor=#fad9d5;strokeColor=#ae4132;" vertex="1" parent="3oHLR1JAqA0yYfKcVh4d-368">
          <mxGeometry width="40" height="40" as="geometry" />
        </mxCell>
        <mxCell id="3oHLR1JAqA0yYfKcVh4d-370" value="" style="pointerEvents=1;verticalLabelPosition=bottom;shadow=0;dashed=0;align=center;html=1;verticalAlign=top;shape=mxgraph.electrical.waveforms.sine_wave;" vertex="1" parent="3oHLR1JAqA0yYfKcVh4d-368">
          <mxGeometry x="9" y="11.46" width="22" height="17.09" as="geometry" />
        </mxCell>
        <mxCell id="3oHLR1JAqA0yYfKcVh4d-375" value="" style="rounded=0;whiteSpace=wrap;html=1;dashed=1;dashPattern=8 8;" vertex="1" parent="1">
          <mxGeometry x="1228" y="4963" width="290" height="385" as="geometry" />
        </mxCell>
        <mxCell id="3oHLR1JAqA0yYfKcVh4d-376" value="" style="rounded=0;whiteSpace=wrap;html=1;dashed=1;dashPattern=8 8;" vertex="1" parent="1">
          <mxGeometry x="1228" y="4548" width="294" height="385" as="geometry" />
        </mxCell>
        <mxCell id="3oHLR1JAqA0yYfKcVh4d-377" value="$$a$$" style="whiteSpace=wrap;html=1;aspect=fixed;fillColor=#e1d5e7;strokeColor=#9673a6;fontSize=16;" vertex="1" parent="1">
          <mxGeometry x="1251" y="4564.5" width="45" height="45" as="geometry" />
        </mxCell>
        <mxCell id="3oHLR1JAqA0yYfKcVh4d-378" style="edgeStyle=orthogonalEdgeStyle;rounded=0;orthogonalLoop=1;jettySize=auto;html=1;entryX=0.5;entryY=0;entryDx=0;entryDy=0;" edge="1" parent="1" source="3oHLR1JAqA0yYfKcVh4d-379">
          <mxGeometry relative="1" as="geometry">
            <mxPoint x="1481" y="4734.5" as="targetPoint" />
          </mxGeometry>
        </mxCell>
        <mxCell id="3oHLR1JAqA0yYfKcVh4d-379" value="" style="verticalLabelPosition=bottom;verticalAlign=top;html=1;shape=mxgraph.flowchart.or;fontSize=16;fillColor=#BDBDBD;strokeColor=#000000;" vertex="1" parent="1">
          <mxGeometry x="1361" y="4644.5" width="40" height="40" as="geometry" />
        </mxCell>
        <mxCell id="3oHLR1JAqA0yYfKcVh4d-380" value="$$d$$" style="whiteSpace=wrap;html=1;aspect=fixed;fillColor=#e1d5e7;strokeColor=#9673a6;fontSize=16;" vertex="1" parent="1">
          <mxGeometry x="1251" y="4714.5" width="45" height="45" as="geometry" />
        </mxCell>
        <mxCell id="3oHLR1JAqA0yYfKcVh4d-381" value="$$x$$" style="whiteSpace=wrap;html=1;aspect=fixed;fillColor=#e1d5e7;strokeColor=#9673a6;fontSize=16;" vertex="1" parent="1">
          <mxGeometry x="1251" y="4849.5" width="45" height="45" as="geometry" />
        </mxCell>
        <mxCell id="3oHLR1JAqA0yYfKcVh4d-382" style="edgeStyle=orthogonalEdgeStyle;rounded=0;orthogonalLoop=1;jettySize=auto;html=1;entryX=0.5;entryY=0;entryDx=0;entryDy=0;entryPerimeter=0;" edge="1" parent="1" source="3oHLR1JAqA0yYfKcVh4d-377" target="3oHLR1JAqA0yYfKcVh4d-379">
          <mxGeometry relative="1" as="geometry" />
        </mxCell>
        <mxCell id="3oHLR1JAqA0yYfKcVh4d-383" style="edgeStyle=orthogonalEdgeStyle;rounded=0;orthogonalLoop=1;jettySize=auto;html=1;entryX=0.5;entryY=1;entryDx=0;entryDy=0;entryPerimeter=0;" edge="1" parent="1" source="3oHLR1JAqA0yYfKcVh4d-380" target="3oHLR1JAqA0yYfKcVh4d-379">
          <mxGeometry relative="1" as="geometry" />
        </mxCell>
        <mxCell id="3oHLR1JAqA0yYfKcVh4d-384" style="edgeStyle=orthogonalEdgeStyle;rounded=0;orthogonalLoop=1;jettySize=auto;html=1;entryX=0.5;entryY=1;entryDx=0;entryDy=0;" edge="1" parent="1" source="3oHLR1JAqA0yYfKcVh4d-385">
          <mxGeometry relative="1" as="geometry">
            <mxPoint x="1481" y="4774.5" as="targetPoint" />
          </mxGeometry>
        </mxCell>
        <mxCell id="3oHLR1JAqA0yYfKcVh4d-385" value="" style="verticalLabelPosition=bottom;verticalAlign=top;html=1;shape=mxgraph.flowchart.or;fontSize=16;fillColor=#BDBDBD;strokeColor=#000000;" vertex="1" parent="1">
          <mxGeometry x="1361" y="4809.5" width="40" height="40" as="geometry" />
        </mxCell>
        <mxCell id="3oHLR1JAqA0yYfKcVh4d-386" style="edgeStyle=orthogonalEdgeStyle;rounded=0;orthogonalLoop=1;jettySize=auto;html=1;entryX=0.5;entryY=1;entryDx=0;entryDy=0;entryPerimeter=0;" edge="1" parent="1" source="3oHLR1JAqA0yYfKcVh4d-381" target="3oHLR1JAqA0yYfKcVh4d-385">
          <mxGeometry relative="1" as="geometry" />
        </mxCell>
        <mxCell id="3oHLR1JAqA0yYfKcVh4d-387" style="edgeStyle=orthogonalEdgeStyle;rounded=0;orthogonalLoop=1;jettySize=auto;html=1;entryX=0;entryY=0.5;entryDx=0;entryDy=0;entryPerimeter=0;exitX=0.5;exitY=0;exitDx=0;exitDy=0;" edge="1" parent="1" source="3oHLR1JAqA0yYfKcVh4d-381" target="3oHLR1JAqA0yYfKcVh4d-385">
          <mxGeometry relative="1" as="geometry" />
        </mxCell>
        <mxCell id="3oHLR1JAqA0yYfKcVh4d-388" style="edgeStyle=orthogonalEdgeStyle;rounded=0;orthogonalLoop=1;jettySize=auto;html=1;entryX=0;entryY=0.5;entryDx=0;entryDy=0;exitX=0.5;exitY=0;exitDx=0;exitDy=0;" edge="1" parent="1" source="3oHLR1JAqA0yYfKcVh4d-391" target="3oHLR1JAqA0yYfKcVh4d-395">
          <mxGeometry relative="1" as="geometry" />
        </mxCell>
        <mxCell id="3oHLR1JAqA0yYfKcVh4d-389" style="edgeStyle=orthogonalEdgeStyle;rounded=0;orthogonalLoop=1;jettySize=auto;html=1;entryX=0;entryY=0.5;entryDx=0;entryDy=0;" edge="1" parent="1" source="3oHLR1JAqA0yYfKcVh4d-391" target="3oHLR1JAqA0yYfKcVh4d-407">
          <mxGeometry relative="1" as="geometry" />
        </mxCell>
        <mxCell id="3oHLR1JAqA0yYfKcVh4d-390" style="edgeStyle=orthogonalEdgeStyle;rounded=0;orthogonalLoop=1;jettySize=auto;html=1;entryX=0.5;entryY=0;entryDx=0;entryDy=0;" edge="1" parent="1" source="3oHLR1JAqA0yYfKcVh4d-391" target="3oHLR1JAqA0yYfKcVh4d-412">
          <mxGeometry relative="1" as="geometry">
            <Array as="points">
              <mxPoint x="1578" y="4867.5" />
              <mxPoint x="1675" y="4867.5" />
            </Array>
          </mxGeometry>
        </mxCell>
        <mxCell id="3oHLR1JAqA0yYfKcVh4d-391" value="" style="whiteSpace=wrap;html=1;fillColor=#bac8d3;strokeColor=#23445d;" vertex="1" parent="1">
          <mxGeometry x="1555" y="4732" width="45" height="45" as="geometry" />
        </mxCell>
        <mxCell id="3oHLR1JAqA0yYfKcVh4d-392" style="edgeStyle=orthogonalEdgeStyle;rounded=0;orthogonalLoop=1;jettySize=auto;html=1;" edge="1" parent="1" source="3oHLR1JAqA0yYfKcVh4d-393" target="3oHLR1JAqA0yYfKcVh4d-395">
          <mxGeometry relative="1" as="geometry" />
        </mxCell>
        <mxCell id="3oHLR1JAqA0yYfKcVh4d-393" value="$$d$$" style="whiteSpace=wrap;html=1;aspect=fixed;fillColor=#e1d5e7;strokeColor=#9673a6;fontSize=16;" vertex="1" parent="1">
          <mxGeometry x="1555" y="4609.5" width="45" height="45" as="geometry" />
        </mxCell>
        <mxCell id="3oHLR1JAqA0yYfKcVh4d-394" value="" style="group" vertex="1" connectable="0" parent="1">
          <mxGeometry x="1655" y="4669.5" width="40" height="40" as="geometry" />
        </mxCell>
        <mxCell id="3oHLR1JAqA0yYfKcVh4d-395" value="" style="ellipse;whiteSpace=wrap;html=1;aspect=fixed;fillColor=#ffe6cc;strokeColor=#d79b00;" vertex="1" parent="3oHLR1JAqA0yYfKcVh4d-394">
          <mxGeometry width="40" height="40" as="geometry" />
        </mxCell>
        <mxCell id="3oHLR1JAqA0yYfKcVh4d-396" value="" style="endArrow=none;html=1;rounded=0;" edge="1" parent="3oHLR1JAqA0yYfKcVh4d-394">
          <mxGeometry width="50" height="50" relative="1" as="geometry">
            <mxPoint x="4" y="20" as="sourcePoint" />
            <mxPoint x="37" y="20" as="targetPoint" />
          </mxGeometry>
        </mxCell>
        <mxCell id="3oHLR1JAqA0yYfKcVh4d-397" value="" style="verticalLabelPosition=bottom;verticalAlign=top;html=1;shape=mxgraph.flowchart.on-page_reference;fillColor=#000000;" vertex="1" parent="3oHLR1JAqA0yYfKcVh4d-394">
          <mxGeometry x="19" y="8" width="2" height="2" as="geometry" />
        </mxCell>
        <mxCell id="3oHLR1JAqA0yYfKcVh4d-398" value="" style="verticalLabelPosition=bottom;verticalAlign=top;html=1;shape=mxgraph.flowchart.on-page_reference;fillColor=#000000;" vertex="1" parent="3oHLR1JAqA0yYfKcVh4d-394">
          <mxGeometry x="19" y="30" width="2" height="2" as="geometry" />
        </mxCell>
        <mxCell id="3oHLR1JAqA0yYfKcVh4d-399" style="edgeStyle=orthogonalEdgeStyle;rounded=0;orthogonalLoop=1;jettySize=auto;html=1;entryX=0.5;entryY=1;entryDx=0;entryDy=0;" edge="1" parent="1" source="3oHLR1JAqA0yYfKcVh4d-400" target="3oHLR1JAqA0yYfKcVh4d-407">
          <mxGeometry relative="1" as="geometry" />
        </mxCell>
        <mxCell id="3oHLR1JAqA0yYfKcVh4d-400" value="$$a$$" style="whiteSpace=wrap;html=1;aspect=fixed;fillColor=#e1d5e7;strokeColor=#9673a6;fontSize=16;" vertex="1" parent="1">
          <mxGeometry x="1652.5" y="4811" width="45" height="45" as="geometry" />
        </mxCell>
        <mxCell id="3oHLR1JAqA0yYfKcVh4d-401" value="$$1$$" style="text;html=1;align=center;verticalAlign=middle;resizable=0;points=[];autosize=1;strokeColor=none;fillColor=none;fontSize=10;" vertex="1" parent="1">
          <mxGeometry x="1539" y="4607.5" width="46" height="24" as="geometry" />
        </mxCell>
        <mxCell id="3oHLR1JAqA0yYfKcVh4d-402" value="$$2$$" style="text;html=1;align=center;verticalAlign=middle;resizable=0;points=[];autosize=1;strokeColor=none;fillColor=none;" vertex="1" parent="1">
          <mxGeometry x="1535.5" y="4727.5" width="51" height="26" as="geometry" />
        </mxCell>
        <mxCell id="3oHLR1JAqA0yYfKcVh4d-403" style="edgeStyle=orthogonalEdgeStyle;rounded=0;orthogonalLoop=1;jettySize=auto;html=1;entryX=0.5;entryY=1;entryDx=0;entryDy=0;" edge="1" parent="1" source="3oHLR1JAqA0yYfKcVh4d-404" target="3oHLR1JAqA0yYfKcVh4d-412">
          <mxGeometry relative="1" as="geometry" />
        </mxCell>
        <mxCell id="3oHLR1JAqA0yYfKcVh4d-404" value="$$x$$" style="whiteSpace=wrap;html=1;aspect=fixed;fillColor=#e1d5e7;strokeColor=#9673a6;fontSize=16;" vertex="1" parent="1">
          <mxGeometry x="1652.5" y="4964.5" width="45" height="45" as="geometry" />
        </mxCell>
        <mxCell id="3oHLR1JAqA0yYfKcVh4d-405" value="$$1$$" style="text;html=1;align=center;verticalAlign=middle;resizable=0;points=[];autosize=1;strokeColor=none;fillColor=none;fontSize=10;" vertex="1" parent="1">
          <mxGeometry x="1635" y="4964.5" width="46" height="24" as="geometry" />
        </mxCell>
        <mxCell id="3oHLR1JAqA0yYfKcVh4d-406" value="" style="group" vertex="1" connectable="0" parent="1">
          <mxGeometry x="1655" y="4734.5" width="40" height="40" as="geometry" />
        </mxCell>
        <mxCell id="3oHLR1JAqA0yYfKcVh4d-407" value="" style="ellipse;whiteSpace=wrap;html=1;aspect=fixed;fillColor=#ffe6cc;strokeColor=#d79b00;" vertex="1" parent="3oHLR1JAqA0yYfKcVh4d-406">
          <mxGeometry width="40" height="40" as="geometry" />
        </mxCell>
        <mxCell id="3oHLR1JAqA0yYfKcVh4d-408" value="" style="endArrow=none;html=1;rounded=0;" edge="1" parent="3oHLR1JAqA0yYfKcVh4d-406">
          <mxGeometry width="50" height="50" relative="1" as="geometry">
            <mxPoint x="4" y="20" as="sourcePoint" />
            <mxPoint x="37" y="20" as="targetPoint" />
          </mxGeometry>
        </mxCell>
        <mxCell id="3oHLR1JAqA0yYfKcVh4d-409" value="" style="verticalLabelPosition=bottom;verticalAlign=top;html=1;shape=mxgraph.flowchart.on-page_reference;fillColor=#000000;" vertex="1" parent="3oHLR1JAqA0yYfKcVh4d-406">
          <mxGeometry x="19" y="8" width="2" height="2" as="geometry" />
        </mxCell>
        <mxCell id="3oHLR1JAqA0yYfKcVh4d-410" value="" style="verticalLabelPosition=bottom;verticalAlign=top;html=1;shape=mxgraph.flowchart.on-page_reference;fillColor=#000000;" vertex="1" parent="3oHLR1JAqA0yYfKcVh4d-406">
          <mxGeometry x="19" y="30" width="2" height="2" as="geometry" />
        </mxCell>
        <mxCell id="3oHLR1JAqA0yYfKcVh4d-411" value="" style="group" vertex="1" connectable="0" parent="1">
          <mxGeometry x="1655" y="4891.5" width="40" height="40" as="geometry" />
        </mxCell>
        <mxCell id="3oHLR1JAqA0yYfKcVh4d-412" value="" style="ellipse;whiteSpace=wrap;html=1;aspect=fixed;fillColor=#ffe6cc;strokeColor=#d79b00;" vertex="1" parent="3oHLR1JAqA0yYfKcVh4d-411">
          <mxGeometry width="40" height="40" as="geometry" />
        </mxCell>
        <mxCell id="3oHLR1JAqA0yYfKcVh4d-413" value="" style="endArrow=none;html=1;rounded=0;" edge="1" parent="3oHLR1JAqA0yYfKcVh4d-411">
          <mxGeometry width="50" height="50" relative="1" as="geometry">
            <mxPoint x="4" y="20" as="sourcePoint" />
            <mxPoint x="37" y="20" as="targetPoint" />
          </mxGeometry>
        </mxCell>
        <mxCell id="3oHLR1JAqA0yYfKcVh4d-414" value="" style="verticalLabelPosition=bottom;verticalAlign=top;html=1;shape=mxgraph.flowchart.on-page_reference;fillColor=#000000;" vertex="1" parent="3oHLR1JAqA0yYfKcVh4d-411">
          <mxGeometry x="19" y="8" width="2" height="2" as="geometry" />
        </mxCell>
        <mxCell id="3oHLR1JAqA0yYfKcVh4d-415" value="" style="verticalLabelPosition=bottom;verticalAlign=top;html=1;shape=mxgraph.flowchart.on-page_reference;fillColor=#000000;" vertex="1" parent="3oHLR1JAqA0yYfKcVh4d-411">
          <mxGeometry x="19" y="30" width="2" height="2" as="geometry" />
        </mxCell>
        <mxCell id="3oHLR1JAqA0yYfKcVh4d-416" style="edgeStyle=orthogonalEdgeStyle;rounded=0;orthogonalLoop=1;jettySize=auto;html=1;entryX=0;entryY=0.5;entryDx=0;entryDy=0;" edge="1" parent="1" source="3oHLR1JAqA0yYfKcVh4d-417" target="3oHLR1JAqA0yYfKcVh4d-391">
          <mxGeometry relative="1" as="geometry" />
        </mxCell>
        <mxCell id="3oHLR1JAqA0yYfKcVh4d-417" value="" style="shape=lineEllipse;perimeter=ellipsePerimeter;whiteSpace=wrap;html=1;backgroundOutline=1;fillColor=#f5f5f5;fontColor=#333333;strokeColor=#666666;" vertex="1" parent="1">
          <mxGeometry x="1461" y="4734.5" width="40" height="40" as="geometry" />
        </mxCell>
        <mxCell id="3oHLR1JAqA0yYfKcVh4d-418" value="$$1$$" style="text;html=1;align=center;verticalAlign=middle;resizable=0;points=[];autosize=1;strokeColor=none;fillColor=none;fontSize=10;" vertex="1" parent="1">
          <mxGeometry x="1635" y="4805" width="46" height="24" as="geometry" />
        </mxCell>
        <mxCell id="3oHLR1JAqA0yYfKcVh4d-419" value="$$b$$" style="whiteSpace=wrap;html=1;aspect=fixed;fillColor=#BBB1BF;strokeColor=#9673a6;fontSize=16;" vertex="1" parent="1">
          <mxGeometry x="1251" y="4983" width="45" height="45" as="geometry" />
        </mxCell>
        <mxCell id="3oHLR1JAqA0yYfKcVh4d-420" style="edgeStyle=orthogonalEdgeStyle;rounded=0;orthogonalLoop=1;jettySize=auto;html=1;entryX=0.5;entryY=0;entryDx=0;entryDy=0;" edge="1" parent="1" source="3oHLR1JAqA0yYfKcVh4d-421">
          <mxGeometry relative="1" as="geometry">
            <mxPoint x="1481" y="5153" as="targetPoint" />
          </mxGeometry>
        </mxCell>
        <mxCell id="3oHLR1JAqA0yYfKcVh4d-421" value="" style="verticalLabelPosition=bottom;verticalAlign=top;html=1;shape=mxgraph.flowchart.or;fontSize=16;fillColor=#BDBDBD;strokeColor=#000000;" vertex="1" parent="1">
          <mxGeometry x="1361" y="5063" width="40" height="40" as="geometry" />
        </mxCell>
        <mxCell id="3oHLR1JAqA0yYfKcVh4d-422" value="$$e$$" style="whiteSpace=wrap;html=1;aspect=fixed;fillColor=#BBB1BF;strokeColor=#9673a6;fontSize=16;" vertex="1" parent="1">
          <mxGeometry x="1251" y="5133" width="45" height="45" as="geometry" />
        </mxCell>
        <mxCell id="3oHLR1JAqA0yYfKcVh4d-423" value="$$y$$" style="whiteSpace=wrap;html=1;aspect=fixed;fillColor=#BBB1BF;strokeColor=#9673a6;fontSize=16;" vertex="1" parent="1">
          <mxGeometry x="1251" y="5268" width="45" height="45" as="geometry" />
        </mxCell>
        <mxCell id="3oHLR1JAqA0yYfKcVh4d-424" style="edgeStyle=orthogonalEdgeStyle;rounded=0;orthogonalLoop=1;jettySize=auto;html=1;entryX=0.5;entryY=0;entryDx=0;entryDy=0;entryPerimeter=0;" edge="1" parent="1" source="3oHLR1JAqA0yYfKcVh4d-419" target="3oHLR1JAqA0yYfKcVh4d-421">
          <mxGeometry relative="1" as="geometry" />
        </mxCell>
        <mxCell id="3oHLR1JAqA0yYfKcVh4d-425" style="edgeStyle=orthogonalEdgeStyle;rounded=0;orthogonalLoop=1;jettySize=auto;html=1;entryX=0.5;entryY=1;entryDx=0;entryDy=0;entryPerimeter=0;" edge="1" parent="1" source="3oHLR1JAqA0yYfKcVh4d-422" target="3oHLR1JAqA0yYfKcVh4d-421">
          <mxGeometry relative="1" as="geometry" />
        </mxCell>
        <mxCell id="3oHLR1JAqA0yYfKcVh4d-426" style="edgeStyle=orthogonalEdgeStyle;rounded=0;orthogonalLoop=1;jettySize=auto;html=1;entryX=0.5;entryY=1;entryDx=0;entryDy=0;" edge="1" parent="1" source="3oHLR1JAqA0yYfKcVh4d-427">
          <mxGeometry relative="1" as="geometry">
            <mxPoint x="1481" y="5193" as="targetPoint" />
          </mxGeometry>
        </mxCell>
        <mxCell id="3oHLR1JAqA0yYfKcVh4d-427" value="" style="verticalLabelPosition=bottom;verticalAlign=top;html=1;shape=mxgraph.flowchart.or;fontSize=16;fillColor=#BDBDBD;strokeColor=#000000;" vertex="1" parent="1">
          <mxGeometry x="1361" y="5228" width="40" height="40" as="geometry" />
        </mxCell>
        <mxCell id="3oHLR1JAqA0yYfKcVh4d-428" style="edgeStyle=orthogonalEdgeStyle;rounded=0;orthogonalLoop=1;jettySize=auto;html=1;entryX=0.5;entryY=1;entryDx=0;entryDy=0;entryPerimeter=0;" edge="1" parent="1" source="3oHLR1JAqA0yYfKcVh4d-423" target="3oHLR1JAqA0yYfKcVh4d-427">
          <mxGeometry relative="1" as="geometry" />
        </mxCell>
        <mxCell id="3oHLR1JAqA0yYfKcVh4d-429" style="edgeStyle=orthogonalEdgeStyle;rounded=0;orthogonalLoop=1;jettySize=auto;html=1;entryX=0;entryY=0.5;entryDx=0;entryDy=0;entryPerimeter=0;exitX=0.5;exitY=0;exitDx=0;exitDy=0;" edge="1" parent="1" source="3oHLR1JAqA0yYfKcVh4d-423" target="3oHLR1JAqA0yYfKcVh4d-427">
          <mxGeometry relative="1" as="geometry" />
        </mxCell>
        <mxCell id="3oHLR1JAqA0yYfKcVh4d-430" style="edgeStyle=orthogonalEdgeStyle;rounded=0;orthogonalLoop=1;jettySize=auto;html=1;entryX=0;entryY=0.5;entryDx=0;entryDy=0;exitX=0.5;exitY=0;exitDx=0;exitDy=0;" edge="1" parent="1" source="3oHLR1JAqA0yYfKcVh4d-433" target="3oHLR1JAqA0yYfKcVh4d-437">
          <mxGeometry relative="1" as="geometry" />
        </mxCell>
        <mxCell id="3oHLR1JAqA0yYfKcVh4d-431" style="edgeStyle=orthogonalEdgeStyle;rounded=0;orthogonalLoop=1;jettySize=auto;html=1;entryX=0;entryY=0.5;entryDx=0;entryDy=0;" edge="1" parent="1" source="3oHLR1JAqA0yYfKcVh4d-433" target="3oHLR1JAqA0yYfKcVh4d-449">
          <mxGeometry relative="1" as="geometry" />
        </mxCell>
        <mxCell id="3oHLR1JAqA0yYfKcVh4d-432" style="edgeStyle=orthogonalEdgeStyle;rounded=0;orthogonalLoop=1;jettySize=auto;html=1;entryX=0.5;entryY=0;entryDx=0;entryDy=0;" edge="1" parent="1" source="3oHLR1JAqA0yYfKcVh4d-433" target="3oHLR1JAqA0yYfKcVh4d-454">
          <mxGeometry relative="1" as="geometry">
            <Array as="points">
              <mxPoint x="1578" y="5286" />
              <mxPoint x="1675" y="5286" />
            </Array>
          </mxGeometry>
        </mxCell>
        <mxCell id="3oHLR1JAqA0yYfKcVh4d-433" value="" style="whiteSpace=wrap;html=1;fillColor=#bac8d3;strokeColor=#23445d;" vertex="1" parent="1">
          <mxGeometry x="1555" y="5150.5" width="45" height="45" as="geometry" />
        </mxCell>
        <mxCell id="3oHLR1JAqA0yYfKcVh4d-434" style="edgeStyle=orthogonalEdgeStyle;rounded=0;orthogonalLoop=1;jettySize=auto;html=1;" edge="1" parent="1" source="3oHLR1JAqA0yYfKcVh4d-435" target="3oHLR1JAqA0yYfKcVh4d-437">
          <mxGeometry relative="1" as="geometry" />
        </mxCell>
        <mxCell id="3oHLR1JAqA0yYfKcVh4d-435" value="$$e$$" style="whiteSpace=wrap;html=1;aspect=fixed;fillColor=#BBB1BF;strokeColor=#9673a6;fontSize=16;" vertex="1" parent="1">
          <mxGeometry x="1555" y="5028" width="45" height="45" as="geometry" />
        </mxCell>
        <mxCell id="3oHLR1JAqA0yYfKcVh4d-436" value="" style="group" vertex="1" connectable="0" parent="1">
          <mxGeometry x="1655" y="5088" width="40" height="40" as="geometry" />
        </mxCell>
        <mxCell id="3oHLR1JAqA0yYfKcVh4d-437" value="" style="ellipse;whiteSpace=wrap;html=1;aspect=fixed;fillColor=#ffe6cc;strokeColor=#d79b00;" vertex="1" parent="3oHLR1JAqA0yYfKcVh4d-436">
          <mxGeometry width="40" height="40" as="geometry" />
        </mxCell>
        <mxCell id="3oHLR1JAqA0yYfKcVh4d-438" value="" style="endArrow=none;html=1;rounded=0;" edge="1" parent="3oHLR1JAqA0yYfKcVh4d-436">
          <mxGeometry width="50" height="50" relative="1" as="geometry">
            <mxPoint x="4" y="20" as="sourcePoint" />
            <mxPoint x="37" y="20" as="targetPoint" />
          </mxGeometry>
        </mxCell>
        <mxCell id="3oHLR1JAqA0yYfKcVh4d-439" value="" style="verticalLabelPosition=bottom;verticalAlign=top;html=1;shape=mxgraph.flowchart.on-page_reference;fillColor=#000000;" vertex="1" parent="3oHLR1JAqA0yYfKcVh4d-436">
          <mxGeometry x="19" y="8" width="2" height="2" as="geometry" />
        </mxCell>
        <mxCell id="3oHLR1JAqA0yYfKcVh4d-440" value="" style="verticalLabelPosition=bottom;verticalAlign=top;html=1;shape=mxgraph.flowchart.on-page_reference;fillColor=#000000;" vertex="1" parent="3oHLR1JAqA0yYfKcVh4d-436">
          <mxGeometry x="19" y="30" width="2" height="2" as="geometry" />
        </mxCell>
        <mxCell id="3oHLR1JAqA0yYfKcVh4d-441" style="edgeStyle=orthogonalEdgeStyle;rounded=0;orthogonalLoop=1;jettySize=auto;html=1;entryX=0.5;entryY=1;entryDx=0;entryDy=0;" edge="1" parent="1" source="3oHLR1JAqA0yYfKcVh4d-442" target="3oHLR1JAqA0yYfKcVh4d-449">
          <mxGeometry relative="1" as="geometry" />
        </mxCell>
        <mxCell id="3oHLR1JAqA0yYfKcVh4d-442" value="$$b$$" style="whiteSpace=wrap;html=1;aspect=fixed;fillColor=#BBB1BF;strokeColor=#9673a6;fontSize=16;" vertex="1" parent="1">
          <mxGeometry x="1652.5" y="5229.5" width="45" height="45" as="geometry" />
        </mxCell>
        <mxCell id="3oHLR1JAqA0yYfKcVh4d-443" value="$$1$$" style="text;html=1;align=center;verticalAlign=middle;resizable=0;points=[];autosize=1;fontSize=10;" vertex="1" parent="1">
          <mxGeometry x="1539" y="5026" width="46" height="24" as="geometry" />
        </mxCell>
        <mxCell id="3oHLR1JAqA0yYfKcVh4d-444" value="$$2$$" style="text;html=1;align=center;verticalAlign=middle;resizable=0;points=[];autosize=1;strokeColor=none;fillColor=none;" vertex="1" parent="1">
          <mxGeometry x="1535.5" y="5146" width="51" height="26" as="geometry" />
        </mxCell>
        <mxCell id="3oHLR1JAqA0yYfKcVh4d-445" style="edgeStyle=orthogonalEdgeStyle;rounded=0;orthogonalLoop=1;jettySize=auto;html=1;entryX=0.5;entryY=1;entryDx=0;entryDy=0;" edge="1" parent="1" source="3oHLR1JAqA0yYfKcVh4d-446" target="3oHLR1JAqA0yYfKcVh4d-454">
          <mxGeometry relative="1" as="geometry" />
        </mxCell>
        <mxCell id="3oHLR1JAqA0yYfKcVh4d-446" value="$$y$$" style="whiteSpace=wrap;html=1;aspect=fixed;fillColor=#BBB1BF;strokeColor=#9673a6;fontSize=16;" vertex="1" parent="1">
          <mxGeometry x="1652.5" y="5387" width="45" height="45" as="geometry" />
        </mxCell>
        <mxCell id="3oHLR1JAqA0yYfKcVh4d-447" value="$$1$$" style="text;html=1;align=center;verticalAlign=middle;resizable=0;points=[];autosize=1;strokeColor=none;fillColor=none;fontSize=10;" vertex="1" parent="1">
          <mxGeometry x="1635.5" y="5382" width="46" height="24" as="geometry" />
        </mxCell>
        <mxCell id="3oHLR1JAqA0yYfKcVh4d-448" value="" style="group" vertex="1" connectable="0" parent="1">
          <mxGeometry x="1655" y="5153" width="40" height="40" as="geometry" />
        </mxCell>
        <mxCell id="3oHLR1JAqA0yYfKcVh4d-449" value="" style="ellipse;whiteSpace=wrap;html=1;aspect=fixed;fillColor=#ffe6cc;strokeColor=#d79b00;" vertex="1" parent="3oHLR1JAqA0yYfKcVh4d-448">
          <mxGeometry width="40" height="40" as="geometry" />
        </mxCell>
        <mxCell id="3oHLR1JAqA0yYfKcVh4d-450" value="" style="endArrow=none;html=1;rounded=0;" edge="1" parent="3oHLR1JAqA0yYfKcVh4d-448">
          <mxGeometry width="50" height="50" relative="1" as="geometry">
            <mxPoint x="4" y="20" as="sourcePoint" />
            <mxPoint x="37" y="20" as="targetPoint" />
          </mxGeometry>
        </mxCell>
        <mxCell id="3oHLR1JAqA0yYfKcVh4d-451" value="" style="verticalLabelPosition=bottom;verticalAlign=top;html=1;shape=mxgraph.flowchart.on-page_reference;fillColor=#000000;" vertex="1" parent="3oHLR1JAqA0yYfKcVh4d-448">
          <mxGeometry x="19" y="8" width="2" height="2" as="geometry" />
        </mxCell>
        <mxCell id="3oHLR1JAqA0yYfKcVh4d-452" value="" style="verticalLabelPosition=bottom;verticalAlign=top;html=1;shape=mxgraph.flowchart.on-page_reference;fillColor=#000000;" vertex="1" parent="3oHLR1JAqA0yYfKcVh4d-448">
          <mxGeometry x="19" y="30" width="2" height="2" as="geometry" />
        </mxCell>
        <mxCell id="3oHLR1JAqA0yYfKcVh4d-453" value="" style="group" vertex="1" connectable="0" parent="1">
          <mxGeometry x="1655" y="5310" width="40" height="40" as="geometry" />
        </mxCell>
        <mxCell id="3oHLR1JAqA0yYfKcVh4d-454" value="" style="ellipse;whiteSpace=wrap;html=1;aspect=fixed;fillColor=#ffe6cc;strokeColor=#d79b00;" vertex="1" parent="3oHLR1JAqA0yYfKcVh4d-453">
          <mxGeometry width="40" height="40" as="geometry" />
        </mxCell>
        <mxCell id="3oHLR1JAqA0yYfKcVh4d-455" value="" style="endArrow=none;html=1;rounded=0;" edge="1" parent="3oHLR1JAqA0yYfKcVh4d-453">
          <mxGeometry width="50" height="50" relative="1" as="geometry">
            <mxPoint x="4" y="20" as="sourcePoint" />
            <mxPoint x="37" y="20" as="targetPoint" />
          </mxGeometry>
        </mxCell>
        <mxCell id="3oHLR1JAqA0yYfKcVh4d-456" value="" style="verticalLabelPosition=bottom;verticalAlign=top;html=1;shape=mxgraph.flowchart.on-page_reference;fillColor=#000000;" vertex="1" parent="3oHLR1JAqA0yYfKcVh4d-453">
          <mxGeometry x="19" y="8" width="2" height="2" as="geometry" />
        </mxCell>
        <mxCell id="3oHLR1JAqA0yYfKcVh4d-457" value="" style="verticalLabelPosition=bottom;verticalAlign=top;html=1;shape=mxgraph.flowchart.on-page_reference;fillColor=#000000;" vertex="1" parent="3oHLR1JAqA0yYfKcVh4d-453">
          <mxGeometry x="19" y="30" width="2" height="2" as="geometry" />
        </mxCell>
        <mxCell id="3oHLR1JAqA0yYfKcVh4d-458" value="" style="group" vertex="1" connectable="0" parent="1">
          <mxGeometry x="1783" y="5310" width="40" height="40" as="geometry" />
        </mxCell>
        <mxCell id="3oHLR1JAqA0yYfKcVh4d-459" value="" style="ellipse;whiteSpace=wrap;html=1;aspect=fixed;fillColor=#fad9d5;strokeColor=#ae4132;" vertex="1" parent="3oHLR1JAqA0yYfKcVh4d-458">
          <mxGeometry width="40" height="40" as="geometry" />
        </mxCell>
        <mxCell id="3oHLR1JAqA0yYfKcVh4d-460" value="" style="pointerEvents=1;verticalLabelPosition=bottom;shadow=0;dashed=0;align=center;html=1;verticalAlign=top;shape=mxgraph.electrical.waveforms.sine_wave;" vertex="1" parent="3oHLR1JAqA0yYfKcVh4d-458">
          <mxGeometry x="9" y="11.46" width="22" height="17.09" as="geometry" />
        </mxCell>
        <mxCell id="3oHLR1JAqA0yYfKcVh4d-461" style="edgeStyle=orthogonalEdgeStyle;rounded=0;orthogonalLoop=1;jettySize=auto;html=1;entryX=0;entryY=0.5;entryDx=0;entryDy=0;" edge="1" parent="1" source="3oHLR1JAqA0yYfKcVh4d-462" target="3oHLR1JAqA0yYfKcVh4d-433">
          <mxGeometry relative="1" as="geometry" />
        </mxCell>
        <mxCell id="3oHLR1JAqA0yYfKcVh4d-462" value="" style="shape=lineEllipse;perimeter=ellipsePerimeter;whiteSpace=wrap;html=1;backgroundOutline=1;fillColor=#f5f5f5;fontColor=#333333;strokeColor=#666666;" vertex="1" parent="1">
          <mxGeometry x="1461" y="5153" width="40" height="40" as="geometry" />
        </mxCell>
        <mxCell id="3oHLR1JAqA0yYfKcVh4d-463" value="$$1$$" style="text;html=1;align=center;verticalAlign=middle;resizable=0;points=[];autosize=1;strokeColor=none;fillColor=none;fontSize=10;" vertex="1" parent="1">
          <mxGeometry x="1635" y="5223.5" width="46" height="24" as="geometry" />
        </mxCell>
        <mxCell id="3oHLR1JAqA0yYfKcVh4d-506" value="" style="strokeWidth=2;html=1;shape=mxgraph.flowchart.annotation_1;align=left;pointerEvents=1;" vertex="1" parent="1">
          <mxGeometry x="1879" y="4725.5" width="12" height="413.5" as="geometry" />
        </mxCell>
        <mxCell id="3oHLR1JAqA0yYfKcVh4d-507" value="" style="strokeWidth=2;html=1;shape=mxgraph.flowchart.annotation_1;align=left;pointerEvents=1;direction=west;" vertex="1" parent="1">
          <mxGeometry x="2312" y="4725.5" width="12" height="413.5" as="geometry" />
        </mxCell>
        <mxCell id="3oHLR1JAqA0yYfKcVh4d-508" value="" style="whiteSpace=wrap;html=1;aspect=fixed;fillColor=#dae8fc;strokeColor=#6c8ebf;" vertex="1" parent="1">
          <mxGeometry x="1906" y="4732" width="29" height="29" as="geometry" />
        </mxCell>
        <mxCell id="3oHLR1JAqA0yYfKcVh4d-509" value="0" style="whiteSpace=wrap;html=1;aspect=fixed;fontSize=18;" vertex="1" parent="1">
          <mxGeometry x="1906" y="4807" width="29" height="29" as="geometry" />
        </mxCell>
        <mxCell id="3oHLR1JAqA0yYfKcVh4d-510" value="0" style="whiteSpace=wrap;html=1;aspect=fixed;fontSize=18;" vertex="1" parent="1">
          <mxGeometry x="1906" y="4881" width="29" height="29" as="geometry" />
        </mxCell>
        <mxCell id="3oHLR1JAqA0yYfKcVh4d-511" value="" style="whiteSpace=wrap;html=1;aspect=fixed;fillColor=#b1ddf0;strokeColor=#10739e;" vertex="1" parent="1">
          <mxGeometry x="1906" y="4955" width="29" height="29" as="geometry" />
        </mxCell>
        <mxCell id="3oHLR1JAqA0yYfKcVh4d-512" value="&lt;font style=&quot;font-size: 18px;&quot;&gt;0&lt;/font&gt;" style="whiteSpace=wrap;html=1;aspect=fixed;" vertex="1" parent="1">
          <mxGeometry x="1906" y="5030" width="29" height="29" as="geometry" />
        </mxCell>
        <mxCell id="3oHLR1JAqA0yYfKcVh4d-513" value="&lt;font style=&quot;font-size: 18px;&quot;&gt;0&lt;/font&gt;" style="whiteSpace=wrap;html=1;aspect=fixed;" vertex="1" parent="1">
          <mxGeometry x="1906" y="5104" width="29" height="29" as="geometry" />
        </mxCell>
        <mxCell id="3oHLR1JAqA0yYfKcVh4d-514" value="" style="whiteSpace=wrap;html=1;aspect=fixed;fillColor=#dae8fc;strokeColor=#6c8ebf;" vertex="1" parent="1">
          <mxGeometry x="1981" y="4806.5" width="29" height="29" as="geometry" />
        </mxCell>
        <mxCell id="3oHLR1JAqA0yYfKcVh4d-515" value="0" style="whiteSpace=wrap;html=1;aspect=fixed;fontSize=18;" vertex="1" parent="1">
          <mxGeometry x="1981" y="4731.5" width="29" height="29" as="geometry" />
        </mxCell>
        <mxCell id="3oHLR1JAqA0yYfKcVh4d-516" value="0" style="whiteSpace=wrap;html=1;aspect=fixed;fontSize=18;" vertex="1" parent="1">
          <mxGeometry x="1981" y="4881" width="29" height="29" as="geometry" />
        </mxCell>
        <mxCell id="3oHLR1JAqA0yYfKcVh4d-517" value="" style="whiteSpace=wrap;html=1;aspect=fixed;fillColor=#b1ddf0;strokeColor=#10739e;" vertex="1" parent="1">
          <mxGeometry x="1981" y="5029.5" width="29" height="29" as="geometry" />
        </mxCell>
        <mxCell id="3oHLR1JAqA0yYfKcVh4d-518" value="&lt;font style=&quot;font-size: 18px;&quot;&gt;0&lt;/font&gt;" style="whiteSpace=wrap;html=1;aspect=fixed;" vertex="1" parent="1">
          <mxGeometry x="1981" y="4955" width="29" height="29" as="geometry" />
        </mxCell>
        <mxCell id="3oHLR1JAqA0yYfKcVh4d-519" value="&lt;font style=&quot;font-size: 18px;&quot;&gt;0&lt;/font&gt;" style="whiteSpace=wrap;html=1;aspect=fixed;" vertex="1" parent="1">
          <mxGeometry x="1981" y="5104" width="29" height="29" as="geometry" />
        </mxCell>
        <mxCell id="3oHLR1JAqA0yYfKcVh4d-520" value="" style="whiteSpace=wrap;html=1;aspect=fixed;fillColor=#dae8fc;strokeColor=#6c8ebf;" vertex="1" parent="1">
          <mxGeometry x="2051" y="4880.75" width="29" height="29" as="geometry" />
        </mxCell>
        <mxCell id="3oHLR1JAqA0yYfKcVh4d-521" value="0" style="whiteSpace=wrap;html=1;aspect=fixed;fontSize=18;" vertex="1" parent="1">
          <mxGeometry x="2051" y="4806.5" width="29" height="29" as="geometry" />
        </mxCell>
        <mxCell id="3oHLR1JAqA0yYfKcVh4d-522" value="0" style="whiteSpace=wrap;html=1;aspect=fixed;fontSize=18;" vertex="1" parent="1">
          <mxGeometry x="2051" y="4731.5" width="29" height="29" as="geometry" />
        </mxCell>
        <mxCell id="3oHLR1JAqA0yYfKcVh4d-523" value="" style="whiteSpace=wrap;html=1;aspect=fixed;fillColor=#b1ddf0;strokeColor=#10739e;" vertex="1" parent="1">
          <mxGeometry x="2051" y="5104" width="29" height="29" as="geometry" />
        </mxCell>
        <mxCell id="3oHLR1JAqA0yYfKcVh4d-524" value="&lt;font style=&quot;font-size: 18px;&quot;&gt;0&lt;/font&gt;" style="whiteSpace=wrap;html=1;aspect=fixed;" vertex="1" parent="1">
          <mxGeometry x="2051" y="5029.75" width="29" height="29" as="geometry" />
        </mxCell>
        <mxCell id="3oHLR1JAqA0yYfKcVh4d-525" value="&lt;font style=&quot;font-size: 18px;&quot;&gt;0&lt;/font&gt;" style="whiteSpace=wrap;html=1;aspect=fixed;" vertex="1" parent="1">
          <mxGeometry x="2051" y="4955" width="29" height="29" as="geometry" />
        </mxCell>
        <mxCell id="3oHLR1JAqA0yYfKcVh4d-526" value="" style="whiteSpace=wrap;html=1;aspect=fixed;fillColor=#b1ddf0;strokeColor=#10739e;" vertex="1" parent="1">
          <mxGeometry x="2122" y="4731.75" width="29" height="29" as="geometry" />
        </mxCell>
        <mxCell id="3oHLR1JAqA0yYfKcVh4d-527" value="0" style="whiteSpace=wrap;html=1;aspect=fixed;fontSize=18;" vertex="1" parent="1">
          <mxGeometry x="2122" y="4806.75" width="29" height="29" as="geometry" />
        </mxCell>
        <mxCell id="3oHLR1JAqA0yYfKcVh4d-528" value="0" style="whiteSpace=wrap;html=1;aspect=fixed;fontSize=18;" vertex="1" parent="1">
          <mxGeometry x="2122" y="4880.75" width="29" height="29" as="geometry" />
        </mxCell>
        <mxCell id="3oHLR1JAqA0yYfKcVh4d-529" value="" style="whiteSpace=wrap;html=1;aspect=fixed;fillColor=#b0e3e6;strokeColor=#0e8088;" vertex="1" parent="1">
          <mxGeometry x="2122" y="4954.75" width="29" height="29" as="geometry" />
        </mxCell>
        <mxCell id="3oHLR1JAqA0yYfKcVh4d-530" value="&lt;font style=&quot;font-size: 18px;&quot;&gt;0&lt;/font&gt;" style="whiteSpace=wrap;html=1;aspect=fixed;" vertex="1" parent="1">
          <mxGeometry x="2122" y="5029.75" width="29" height="29" as="geometry" />
        </mxCell>
        <mxCell id="3oHLR1JAqA0yYfKcVh4d-531" value="&lt;font style=&quot;font-size: 18px;&quot;&gt;0&lt;/font&gt;" style="whiteSpace=wrap;html=1;aspect=fixed;" vertex="1" parent="1">
          <mxGeometry x="2122" y="5103.75" width="29" height="29" as="geometry" />
        </mxCell>
        <mxCell id="3oHLR1JAqA0yYfKcVh4d-532" value="" style="whiteSpace=wrap;html=1;aspect=fixed;fillColor=#b1ddf0;strokeColor=#10739e;" vertex="1" parent="1">
          <mxGeometry x="2195" y="4806.75" width="29" height="29" as="geometry" />
        </mxCell>
        <mxCell id="3oHLR1JAqA0yYfKcVh4d-533" value="0" style="whiteSpace=wrap;html=1;aspect=fixed;fontSize=18;" vertex="1" parent="1">
          <mxGeometry x="2195" y="4731.5" width="29" height="29" as="geometry" />
        </mxCell>
        <mxCell id="3oHLR1JAqA0yYfKcVh4d-534" value="0" style="whiteSpace=wrap;html=1;aspect=fixed;fontSize=18;" vertex="1" parent="1">
          <mxGeometry x="2195" y="4880.75" width="29" height="29" as="geometry" />
        </mxCell>
        <mxCell id="3oHLR1JAqA0yYfKcVh4d-535" value="" style="whiteSpace=wrap;html=1;aspect=fixed;fillColor=#b0e3e6;strokeColor=#0e8088;" vertex="1" parent="1">
          <mxGeometry x="2195" y="5029" width="29" height="29" as="geometry" />
        </mxCell>
        <mxCell id="3oHLR1JAqA0yYfKcVh4d-536" value="&lt;font style=&quot;font-size: 18px;&quot;&gt;0&lt;/font&gt;" style="whiteSpace=wrap;html=1;aspect=fixed;" vertex="1" parent="1">
          <mxGeometry x="2195" y="4954.5" width="29" height="29" as="geometry" />
        </mxCell>
        <mxCell id="3oHLR1JAqA0yYfKcVh4d-537" value="&lt;font style=&quot;font-size: 18px;&quot;&gt;0&lt;/font&gt;" style="whiteSpace=wrap;html=1;aspect=fixed;" vertex="1" parent="1">
          <mxGeometry x="2195" y="5103.75" width="29" height="29" as="geometry" />
        </mxCell>
        <mxCell id="3oHLR1JAqA0yYfKcVh4d-538" value="" style="whiteSpace=wrap;html=1;aspect=fixed;fillColor=#b1ddf0;strokeColor=#10739e;" vertex="1" parent="1">
          <mxGeometry x="2266" y="4880.25" width="29" height="29" as="geometry" />
        </mxCell>
        <mxCell id="3oHLR1JAqA0yYfKcVh4d-539" value="0" style="whiteSpace=wrap;html=1;aspect=fixed;fontSize=18;" vertex="1" parent="1">
          <mxGeometry x="2266" y="4806" width="29" height="29" as="geometry" />
        </mxCell>
        <mxCell id="3oHLR1JAqA0yYfKcVh4d-540" value="0" style="whiteSpace=wrap;html=1;aspect=fixed;fontSize=18;" vertex="1" parent="1">
          <mxGeometry x="2266" y="4731.75" width="29" height="29" as="geometry" />
        </mxCell>
        <mxCell id="3oHLR1JAqA0yYfKcVh4d-541" value="" style="whiteSpace=wrap;html=1;aspect=fixed;fillColor=#b0e3e6;strokeColor=#0e8088;" vertex="1" parent="1">
          <mxGeometry x="2266" y="5103.5" width="29" height="29" as="geometry" />
        </mxCell>
        <mxCell id="3oHLR1JAqA0yYfKcVh4d-542" value="&lt;font style=&quot;font-size: 18px;&quot;&gt;0&lt;/font&gt;" style="whiteSpace=wrap;html=1;aspect=fixed;" vertex="1" parent="1">
          <mxGeometry x="2266" y="5029" width="29" height="29" as="geometry" />
        </mxCell>
        <mxCell id="3oHLR1JAqA0yYfKcVh4d-543" value="&lt;font style=&quot;font-size: 18px;&quot;&gt;0&lt;/font&gt;" style="whiteSpace=wrap;html=1;aspect=fixed;" vertex="1" parent="1">
          <mxGeometry x="2266" y="4954.5" width="29" height="29" as="geometry" />
        </mxCell>
        <mxCell id="3oHLR1JAqA0yYfKcVh4d-544" style="edgeStyle=orthogonalEdgeStyle;rounded=0;orthogonalLoop=1;jettySize=auto;html=1;entryX=0.5;entryY=0;entryDx=0;entryDy=0;strokeColor=#6C8EBF;" edge="1" parent="1" source="3oHLR1JAqA0yYfKcVh4d-395" target="3oHLR1JAqA0yYfKcVh4d-508">
          <mxGeometry relative="1" as="geometry" />
        </mxCell>
        <mxCell id="3oHLR1JAqA0yYfKcVh4d-545" style="edgeStyle=orthogonalEdgeStyle;rounded=0;orthogonalLoop=1;jettySize=auto;html=1;strokeColor=#0E8088;" edge="1" parent="1" source="3oHLR1JAqA0yYfKcVh4d-407" target="3oHLR1JAqA0yYfKcVh4d-529">
          <mxGeometry relative="1" as="geometry">
            <mxPoint x="1733.2380952380952" y="4457.5" as="targetPoint" />
            <Array as="points">
              <mxPoint x="1730" y="4755" />
              <mxPoint x="1730" y="5009" />
              <mxPoint x="2137" y="5009" />
            </Array>
          </mxGeometry>
        </mxCell>
        <mxCell id="3oHLR1JAqA0yYfKcVh4d-546" style="edgeStyle=orthogonalEdgeStyle;rounded=0;orthogonalLoop=1;jettySize=auto;html=1;entryX=0;entryY=0.5;entryDx=0;entryDy=0;" edge="1" parent="1" source="3oHLR1JAqA0yYfKcVh4d-412">
          <mxGeometry relative="1" as="geometry">
            <mxPoint x="1779" y="4911.5" as="targetPoint" />
          </mxGeometry>
        </mxCell>
        <mxCell id="3oHLR1JAqA0yYfKcVh4d-547" style="edgeStyle=orthogonalEdgeStyle;rounded=0;orthogonalLoop=1;jettySize=auto;html=1;entryX=0;entryY=0.5;entryDx=0;entryDy=0;strokeColor=#10739E;exitX=0.5;exitY=1;exitDx=0;exitDy=0;" edge="1" parent="1" target="3oHLR1JAqA0yYfKcVh4d-511" source="3oHLR1JAqA0yYfKcVh4d-560">
          <mxGeometry relative="1" as="geometry">
            <mxPoint x="1741" y="4634.5" as="sourcePoint" />
            <Array as="points">
              <mxPoint x="1798" y="4970" />
            </Array>
          </mxGeometry>
        </mxCell>
        <mxCell id="3oHLR1JAqA0yYfKcVh4d-548" style="edgeStyle=orthogonalEdgeStyle;rounded=0;orthogonalLoop=1;jettySize=auto;html=1;strokeColor=#10739E;exitX=0.5;exitY=0;exitDx=0;exitDy=0;" edge="1" parent="1" source="3oHLR1JAqA0yYfKcVh4d-560">
          <mxGeometry relative="1" as="geometry">
            <mxPoint x="1761" y="4614.5" as="sourcePoint" />
            <mxPoint x="2137" y="4761" as="targetPoint" />
            <Array as="points">
              <mxPoint x="1798" y="4787" />
              <mxPoint x="2137" y="4787" />
            </Array>
          </mxGeometry>
        </mxCell>
        <mxCell id="3oHLR1JAqA0yYfKcVh4d-551" style="edgeStyle=orthogonalEdgeStyle;rounded=0;orthogonalLoop=1;jettySize=auto;html=1;entryX=0;entryY=0.5;entryDx=0;entryDy=0;" edge="1" parent="1" source="3oHLR1JAqA0yYfKcVh4d-454" target="3oHLR1JAqA0yYfKcVh4d-459">
          <mxGeometry relative="1" as="geometry">
            <mxPoint x="1778" y="5330" as="targetPoint" />
          </mxGeometry>
        </mxCell>
        <mxCell id="3oHLR1JAqA0yYfKcVh4d-552" style="edgeStyle=orthogonalEdgeStyle;rounded=0;orthogonalLoop=1;jettySize=auto;html=1;entryX=0;entryY=0.5;entryDx=0;entryDy=0;strokeColor=#10739E;" edge="1" parent="1" source="3oHLR1JAqA0yYfKcVh4d-459" target="3oHLR1JAqA0yYfKcVh4d-517">
          <mxGeometry relative="1" as="geometry">
            <Array as="points">
              <mxPoint x="1803" y="5278" />
              <mxPoint x="1956" y="5278" />
              <mxPoint x="1956" y="5044" />
            </Array>
          </mxGeometry>
        </mxCell>
        <mxCell id="3oHLR1JAqA0yYfKcVh4d-553" style="edgeStyle=orthogonalEdgeStyle;rounded=0;orthogonalLoop=1;jettySize=auto;html=1;strokeColor=#10739E;" edge="1" parent="1" source="3oHLR1JAqA0yYfKcVh4d-459">
          <mxGeometry relative="1" as="geometry">
            <mxPoint x="2195" y="4819" as="targetPoint" />
            <Array as="points">
              <mxPoint x="2170" y="5327" />
              <mxPoint x="2170" y="4819" />
            </Array>
          </mxGeometry>
        </mxCell>
        <mxCell id="3oHLR1JAqA0yYfKcVh4d-554" style="edgeStyle=orthogonalEdgeStyle;rounded=0;orthogonalLoop=1;jettySize=auto;html=1;strokeColor=#6C8EBF;exitX=0;exitY=0.5;exitDx=0;exitDy=0;" edge="1" parent="1" source="3oHLR1JAqA0yYfKcVh4d-585">
          <mxGeometry relative="1" as="geometry">
            <mxPoint x="2080" y="4895" as="targetPoint" />
            <Array as="points">
              <mxPoint x="2415" y="4812" />
              <mxPoint x="2415" y="4682" />
              <mxPoint x="2095" y="4682" />
              <mxPoint x="2095" y="4895" />
            </Array>
            <mxPoint x="1632.9999783736907" y="5302.529411764705" as="sourcePoint" />
          </mxGeometry>
        </mxCell>
        <mxCell id="3oHLR1JAqA0yYfKcVh4d-555" style="edgeStyle=orthogonalEdgeStyle;rounded=0;orthogonalLoop=1;jettySize=auto;html=1;entryX=0.5;entryY=1;entryDx=0;entryDy=0;strokeColor=#0E8088;exitX=0;exitY=0.5;exitDx=0;exitDy=0;" edge="1" parent="1" source="3oHLR1JAqA0yYfKcVh4d-597" target="3oHLR1JAqA0yYfKcVh4d-541">
          <mxGeometry relative="1" as="geometry">
            <mxPoint x="1733.2380952380952" y="5367.5" as="targetPoint" />
            <mxPoint x="1632.9999783736907" y="5367.470588235295" as="sourcePoint" />
            <Array as="points">
              <mxPoint x="2358" y="4877" />
              <mxPoint x="2358" y="5161" />
              <mxPoint x="2281" y="5161" />
            </Array>
          </mxGeometry>
        </mxCell>
        <mxCell id="3oHLR1JAqA0yYfKcVh4d-557" style="edgeStyle=orthogonalEdgeStyle;rounded=0;orthogonalLoop=1;jettySize=auto;html=1;entryX=0.5;entryY=1;entryDx=0;entryDy=0;exitX=0.5;exitY=1;exitDx=0;exitDy=0;strokeColor=#10739E;" edge="1" parent="1" target="3oHLR1JAqA0yYfKcVh4d-523" source="3oHLR1JAqA0yYfKcVh4d-610">
          <mxGeometry relative="1" as="geometry">
            <mxPoint x="1741" y="5504.5" as="sourcePoint" />
            <Array as="points">
              <mxPoint x="2398" y="5176" />
              <mxPoint x="2066" y="5176" />
            </Array>
          </mxGeometry>
        </mxCell>
        <mxCell id="3oHLR1JAqA0yYfKcVh4d-558" style="edgeStyle=orthogonalEdgeStyle;rounded=0;orthogonalLoop=1;jettySize=auto;html=1;entryX=1;entryY=0.5;entryDx=0;entryDy=0;strokeColor=#10739E;exitX=0;exitY=0.5;exitDx=0;exitDy=0;" edge="1" parent="1" target="3oHLR1JAqA0yYfKcVh4d-538" source="3oHLR1JAqA0yYfKcVh4d-610">
          <mxGeometry relative="1" as="geometry">
            <mxPoint x="1761" y="5524.5" as="sourcePoint" />
            <Array as="points">
              <mxPoint x="2339" y="5063" />
              <mxPoint x="2339" y="4895" />
            </Array>
          </mxGeometry>
        </mxCell>
        <mxCell id="3oHLR1JAqA0yYfKcVh4d-559" value="" style="group" vertex="1" connectable="0" parent="1">
          <mxGeometry x="1778" y="4892.5" width="40" height="40" as="geometry" />
        </mxCell>
        <mxCell id="3oHLR1JAqA0yYfKcVh4d-560" value="" style="ellipse;whiteSpace=wrap;html=1;aspect=fixed;fillColor=#fad9d5;strokeColor=#ae4132;" vertex="1" parent="3oHLR1JAqA0yYfKcVh4d-559">
          <mxGeometry width="40" height="40" as="geometry" />
        </mxCell>
        <mxCell id="3oHLR1JAqA0yYfKcVh4d-561" value="" style="pointerEvents=1;verticalLabelPosition=bottom;shadow=0;dashed=0;align=center;html=1;verticalAlign=top;shape=mxgraph.electrical.waveforms.sine_wave;" vertex="1" parent="3oHLR1JAqA0yYfKcVh4d-559">
          <mxGeometry x="9" y="11.46" width="22" height="17.09" as="geometry" />
        </mxCell>
        <mxCell id="3oHLR1JAqA0yYfKcVh4d-565" value="" style="rounded=0;whiteSpace=wrap;html=1;dashed=1;dashPattern=8 8;" vertex="1" parent="1">
          <mxGeometry x="2662" y="4733.75" width="294" height="385" as="geometry" />
        </mxCell>
        <mxCell id="3oHLR1JAqA0yYfKcVh4d-566" value="$$c$$" style="whiteSpace=wrap;html=1;aspect=fixed;fillColor=#8B848F;strokeColor=#9673a6;fontSize=16;" vertex="1" parent="1">
          <mxGeometry x="2858" y="4765.5" width="45" height="45" as="geometry" />
        </mxCell>
        <mxCell id="3oHLR1JAqA0yYfKcVh4d-567" style="edgeStyle=orthogonalEdgeStyle;rounded=0;orthogonalLoop=1;jettySize=auto;html=1;entryX=0.5;entryY=0;entryDx=0;entryDy=0;" edge="1" parent="1" source="3oHLR1JAqA0yYfKcVh4d-568">
          <mxGeometry relative="1" as="geometry">
            <mxPoint x="2707" y="4942" as="targetPoint" />
          </mxGeometry>
        </mxCell>
        <mxCell id="3oHLR1JAqA0yYfKcVh4d-568" value="" style="verticalLabelPosition=bottom;verticalAlign=top;html=1;shape=mxgraph.flowchart.or;fontSize=16;fillColor=#BDBDBD;strokeColor=#000000;" vertex="1" parent="1">
          <mxGeometry x="2761" y="4845.5" width="40" height="40" as="geometry" />
        </mxCell>
        <mxCell id="3oHLR1JAqA0yYfKcVh4d-569" value="$$f$$" style="whiteSpace=wrap;html=1;aspect=fixed;fillColor=#8B848F;strokeColor=#9673a6;fontSize=16;" vertex="1" parent="1">
          <mxGeometry x="2858" y="4915.5" width="45" height="45" as="geometry" />
        </mxCell>
        <mxCell id="3oHLR1JAqA0yYfKcVh4d-570" value="$$z$$" style="whiteSpace=wrap;html=1;aspect=fixed;fillColor=#8B848F;strokeColor=#9673a6;fontSize=16;" vertex="1" parent="1">
          <mxGeometry x="2858" y="5047" width="45" height="45" as="geometry" />
        </mxCell>
        <mxCell id="3oHLR1JAqA0yYfKcVh4d-571" style="edgeStyle=orthogonalEdgeStyle;rounded=0;orthogonalLoop=1;jettySize=auto;html=1;entryX=0.5;entryY=0;entryDx=0;entryDy=0;entryPerimeter=0;" edge="1" parent="1" source="3oHLR1JAqA0yYfKcVh4d-566" target="3oHLR1JAqA0yYfKcVh4d-568">
          <mxGeometry relative="1" as="geometry" />
        </mxCell>
        <mxCell id="3oHLR1JAqA0yYfKcVh4d-572" style="edgeStyle=orthogonalEdgeStyle;rounded=0;orthogonalLoop=1;jettySize=auto;html=1;entryX=0.5;entryY=1;entryDx=0;entryDy=0;entryPerimeter=0;" edge="1" parent="1" source="3oHLR1JAqA0yYfKcVh4d-569" target="3oHLR1JAqA0yYfKcVh4d-568">
          <mxGeometry relative="1" as="geometry" />
        </mxCell>
        <mxCell id="3oHLR1JAqA0yYfKcVh4d-573" style="edgeStyle=orthogonalEdgeStyle;rounded=0;orthogonalLoop=1;jettySize=auto;html=1;entryX=0.5;entryY=1;entryDx=0;entryDy=0;" edge="1" parent="1" source="3oHLR1JAqA0yYfKcVh4d-574">
          <mxGeometry relative="1" as="geometry">
            <mxPoint x="2707" y="4982" as="targetPoint" />
          </mxGeometry>
        </mxCell>
        <mxCell id="3oHLR1JAqA0yYfKcVh4d-574" value="" style="verticalLabelPosition=bottom;verticalAlign=top;html=1;shape=mxgraph.flowchart.or;fontSize=16;fillColor=#BDBDBD;strokeColor=#000000;" vertex="1" parent="1">
          <mxGeometry x="2761" y="5007" width="40" height="40" as="geometry" />
        </mxCell>
        <mxCell id="3oHLR1JAqA0yYfKcVh4d-575" style="edgeStyle=orthogonalEdgeStyle;rounded=0;orthogonalLoop=1;jettySize=auto;html=1;entryX=0.5;entryY=1;entryDx=0;entryDy=0;entryPerimeter=0;" edge="1" parent="1" source="3oHLR1JAqA0yYfKcVh4d-570" target="3oHLR1JAqA0yYfKcVh4d-574">
          <mxGeometry relative="1" as="geometry" />
        </mxCell>
        <mxCell id="3oHLR1JAqA0yYfKcVh4d-576" style="edgeStyle=orthogonalEdgeStyle;rounded=0;orthogonalLoop=1;jettySize=auto;html=1;entryX=1;entryY=0.5;entryDx=0;entryDy=0;entryPerimeter=0;exitX=0.5;exitY=0;exitDx=0;exitDy=0;" edge="1" parent="1" source="3oHLR1JAqA0yYfKcVh4d-570" target="3oHLR1JAqA0yYfKcVh4d-574">
          <mxGeometry relative="1" as="geometry" />
        </mxCell>
        <mxCell id="3oHLR1JAqA0yYfKcVh4d-613" style="edgeStyle=orthogonalEdgeStyle;rounded=0;orthogonalLoop=1;jettySize=auto;html=1;entryX=1;entryY=0.5;entryDx=0;entryDy=0;" edge="1" parent="1" source="3oHLR1JAqA0yYfKcVh4d-577" target="3oHLR1JAqA0yYfKcVh4d-581">
          <mxGeometry relative="1" as="geometry" />
        </mxCell>
        <mxCell id="3oHLR1JAqA0yYfKcVh4d-577" value="" style="shape=lineEllipse;perimeter=ellipsePerimeter;whiteSpace=wrap;html=1;backgroundOutline=1;fillColor=#f5f5f5;fontColor=#333333;strokeColor=#666666;" vertex="1" parent="1">
          <mxGeometry x="2687" y="4942" width="40" height="40" as="geometry" />
        </mxCell>
        <mxCell id="3oHLR1JAqA0yYfKcVh4d-578" style="edgeStyle=orthogonalEdgeStyle;rounded=0;orthogonalLoop=1;jettySize=auto;html=1;entryX=1;entryY=0.5;entryDx=0;entryDy=0;exitX=0.5;exitY=0;exitDx=0;exitDy=0;" edge="1" parent="1" source="3oHLR1JAqA0yYfKcVh4d-581" target="3oHLR1JAqA0yYfKcVh4d-585">
          <mxGeometry relative="1" as="geometry" />
        </mxCell>
        <mxCell id="3oHLR1JAqA0yYfKcVh4d-580" style="edgeStyle=orthogonalEdgeStyle;rounded=0;orthogonalLoop=1;jettySize=auto;html=1;entryX=0.5;entryY=0;entryDx=0;entryDy=0;exitX=0.5;exitY=1;exitDx=0;exitDy=0;" edge="1" parent="1" source="3oHLR1JAqA0yYfKcVh4d-581" target="3oHLR1JAqA0yYfKcVh4d-602">
          <mxGeometry relative="1" as="geometry">
            <Array as="points">
              <mxPoint x="2609" y="5009" />
              <mxPoint x="2490" y="5009" />
            </Array>
          </mxGeometry>
        </mxCell>
        <mxCell id="3oHLR1JAqA0yYfKcVh4d-614" style="edgeStyle=orthogonalEdgeStyle;rounded=0;orthogonalLoop=1;jettySize=auto;html=1;entryX=1;entryY=0.5;entryDx=0;entryDy=0;" edge="1" parent="1" source="3oHLR1JAqA0yYfKcVh4d-581" target="3oHLR1JAqA0yYfKcVh4d-597">
          <mxGeometry relative="1" as="geometry" />
        </mxCell>
        <mxCell id="3oHLR1JAqA0yYfKcVh4d-581" value="" style="whiteSpace=wrap;html=1;fillColor=#bac8d3;strokeColor=#23445d;" vertex="1" parent="1">
          <mxGeometry x="2586" y="4941.38" width="45" height="41.25" as="geometry" />
        </mxCell>
        <mxCell id="3oHLR1JAqA0yYfKcVh4d-582" style="edgeStyle=orthogonalEdgeStyle;rounded=0;orthogonalLoop=1;jettySize=auto;html=1;" edge="1" parent="1" source="3oHLR1JAqA0yYfKcVh4d-583" target="3oHLR1JAqA0yYfKcVh4d-585">
          <mxGeometry relative="1" as="geometry" />
        </mxCell>
        <mxCell id="3oHLR1JAqA0yYfKcVh4d-583" value="$$f$$" style="whiteSpace=wrap;html=1;aspect=fixed;fillColor=#8B848F;strokeColor=#9673a6;fontSize=16;" vertex="1" parent="1">
          <mxGeometry x="2586" y="4734" width="45" height="45" as="geometry" />
        </mxCell>
        <mxCell id="3oHLR1JAqA0yYfKcVh4d-584" value="" style="group" vertex="1" connectable="0" parent="1">
          <mxGeometry x="2470" y="4792.75" width="40" height="40" as="geometry" />
        </mxCell>
        <mxCell id="3oHLR1JAqA0yYfKcVh4d-585" value="" style="ellipse;whiteSpace=wrap;html=1;aspect=fixed;fillColor=#ffe6cc;strokeColor=#d79b00;" vertex="1" parent="3oHLR1JAqA0yYfKcVh4d-584">
          <mxGeometry width="40" height="40" as="geometry" />
        </mxCell>
        <mxCell id="3oHLR1JAqA0yYfKcVh4d-586" value="" style="endArrow=none;html=1;rounded=0;" edge="1" parent="3oHLR1JAqA0yYfKcVh4d-584">
          <mxGeometry width="50" height="50" relative="1" as="geometry">
            <mxPoint x="4" y="20" as="sourcePoint" />
            <mxPoint x="37" y="20" as="targetPoint" />
          </mxGeometry>
        </mxCell>
        <mxCell id="3oHLR1JAqA0yYfKcVh4d-587" value="" style="verticalLabelPosition=bottom;verticalAlign=top;html=1;shape=mxgraph.flowchart.on-page_reference;fillColor=#000000;" vertex="1" parent="3oHLR1JAqA0yYfKcVh4d-584">
          <mxGeometry x="19" y="8" width="2" height="2" as="geometry" />
        </mxCell>
        <mxCell id="3oHLR1JAqA0yYfKcVh4d-588" value="" style="verticalLabelPosition=bottom;verticalAlign=top;html=1;shape=mxgraph.flowchart.on-page_reference;fillColor=#000000;" vertex="1" parent="3oHLR1JAqA0yYfKcVh4d-584">
          <mxGeometry x="19" y="30" width="2" height="2" as="geometry" />
        </mxCell>
        <mxCell id="3oHLR1JAqA0yYfKcVh4d-589" style="edgeStyle=orthogonalEdgeStyle;rounded=0;orthogonalLoop=1;jettySize=auto;html=1;entryX=0.5;entryY=1;entryDx=0;entryDy=0;" edge="1" parent="1" source="3oHLR1JAqA0yYfKcVh4d-590" target="3oHLR1JAqA0yYfKcVh4d-597">
          <mxGeometry relative="1" as="geometry" />
        </mxCell>
        <mxCell id="3oHLR1JAqA0yYfKcVh4d-590" value="$$c$$" style="whiteSpace=wrap;html=1;aspect=fixed;fillColor=#8B848F;strokeColor=#9673a6;fontSize=16;" vertex="1" parent="1">
          <mxGeometry x="2467.5" y="4934.25" width="45" height="45" as="geometry" />
        </mxCell>
        <mxCell id="3oHLR1JAqA0yYfKcVh4d-591" value="$$1$$" style="text;html=1;align=center;verticalAlign=middle;resizable=0;points=[];autosize=1;strokeColor=none;fillColor=none;fontSize=10;" vertex="1" parent="1">
          <mxGeometry x="2570" y="4732" width="46" height="24" as="geometry" />
        </mxCell>
        <mxCell id="3oHLR1JAqA0yYfKcVh4d-592" value="$$2$$" style="text;html=1;align=center;verticalAlign=middle;resizable=0;points=[];autosize=1;strokeColor=none;fillColor=none;" vertex="1" parent="1">
          <mxGeometry x="2569" y="4940" width="51" height="26" as="geometry" />
        </mxCell>
        <mxCell id="3oHLR1JAqA0yYfKcVh4d-593" style="edgeStyle=orthogonalEdgeStyle;rounded=0;orthogonalLoop=1;jettySize=auto;html=1;entryX=0.5;entryY=1;entryDx=0;entryDy=0;" edge="1" parent="1" source="3oHLR1JAqA0yYfKcVh4d-594" target="3oHLR1JAqA0yYfKcVh4d-602">
          <mxGeometry relative="1" as="geometry" />
        </mxCell>
        <mxCell id="3oHLR1JAqA0yYfKcVh4d-594" value="$$z$$" style="whiteSpace=wrap;html=1;aspect=fixed;fillColor=#8B848F;strokeColor=#9673a6;fontSize=16;" vertex="1" parent="1">
          <mxGeometry x="2467.5" y="5119.5" width="45" height="45" as="geometry" />
        </mxCell>
        <mxCell id="3oHLR1JAqA0yYfKcVh4d-595" value="$$1$$" style="text;html=1;align=center;verticalAlign=middle;resizable=0;points=[];autosize=1;strokeColor=none;fillColor=none;fontSize=10;" vertex="1" parent="1">
          <mxGeometry x="2450.5" y="5114.5" width="46" height="24" as="geometry" />
        </mxCell>
        <mxCell id="3oHLR1JAqA0yYfKcVh4d-596" value="" style="group" vertex="1" connectable="0" parent="1">
          <mxGeometry x="2470" y="4857.75" width="40" height="40" as="geometry" />
        </mxCell>
        <mxCell id="3oHLR1JAqA0yYfKcVh4d-597" value="" style="ellipse;whiteSpace=wrap;html=1;aspect=fixed;fillColor=#ffe6cc;strokeColor=#d79b00;" vertex="1" parent="3oHLR1JAqA0yYfKcVh4d-596">
          <mxGeometry width="40" height="40" as="geometry" />
        </mxCell>
        <mxCell id="3oHLR1JAqA0yYfKcVh4d-598" value="" style="endArrow=none;html=1;rounded=0;" edge="1" parent="3oHLR1JAqA0yYfKcVh4d-596">
          <mxGeometry width="50" height="50" relative="1" as="geometry">
            <mxPoint x="4" y="20" as="sourcePoint" />
            <mxPoint x="37" y="20" as="targetPoint" />
          </mxGeometry>
        </mxCell>
        <mxCell id="3oHLR1JAqA0yYfKcVh4d-599" value="" style="verticalLabelPosition=bottom;verticalAlign=top;html=1;shape=mxgraph.flowchart.on-page_reference;fillColor=#000000;" vertex="1" parent="3oHLR1JAqA0yYfKcVh4d-596">
          <mxGeometry x="19" y="8" width="2" height="2" as="geometry" />
        </mxCell>
        <mxCell id="3oHLR1JAqA0yYfKcVh4d-600" value="" style="verticalLabelPosition=bottom;verticalAlign=top;html=1;shape=mxgraph.flowchart.on-page_reference;fillColor=#000000;" vertex="1" parent="3oHLR1JAqA0yYfKcVh4d-596">
          <mxGeometry x="19" y="30" width="2" height="2" as="geometry" />
        </mxCell>
        <mxCell id="3oHLR1JAqA0yYfKcVh4d-601" value="" style="group" vertex="1" connectable="0" parent="1">
          <mxGeometry x="2470" y="5042.5" width="40" height="40" as="geometry" />
        </mxCell>
        <mxCell id="3oHLR1JAqA0yYfKcVh4d-602" value="" style="ellipse;whiteSpace=wrap;html=1;aspect=fixed;fillColor=#ffe6cc;strokeColor=#d79b00;" vertex="1" parent="3oHLR1JAqA0yYfKcVh4d-601">
          <mxGeometry width="40" height="40" as="geometry" />
        </mxCell>
        <mxCell id="3oHLR1JAqA0yYfKcVh4d-603" value="" style="endArrow=none;html=1;rounded=0;" edge="1" parent="3oHLR1JAqA0yYfKcVh4d-601">
          <mxGeometry width="50" height="50" relative="1" as="geometry">
            <mxPoint x="4" y="20" as="sourcePoint" />
            <mxPoint x="37" y="20" as="targetPoint" />
          </mxGeometry>
        </mxCell>
        <mxCell id="3oHLR1JAqA0yYfKcVh4d-604" value="" style="verticalLabelPosition=bottom;verticalAlign=top;html=1;shape=mxgraph.flowchart.on-page_reference;fillColor=#000000;" vertex="1" parent="3oHLR1JAqA0yYfKcVh4d-601">
          <mxGeometry x="19" y="8" width="2" height="2" as="geometry" />
        </mxCell>
        <mxCell id="3oHLR1JAqA0yYfKcVh4d-605" value="" style="verticalLabelPosition=bottom;verticalAlign=top;html=1;shape=mxgraph.flowchart.on-page_reference;fillColor=#000000;" vertex="1" parent="3oHLR1JAqA0yYfKcVh4d-601">
          <mxGeometry x="19" y="30" width="2" height="2" as="geometry" />
        </mxCell>
        <mxCell id="3oHLR1JAqA0yYfKcVh4d-607" value="$$1$$" style="text;html=1;align=center;verticalAlign=middle;resizable=0;points=[];autosize=1;strokeColor=none;fillColor=none;fontSize=10;" vertex="1" parent="1">
          <mxGeometry x="2450" y="4928.25" width="46" height="24" as="geometry" />
        </mxCell>
        <mxCell id="3oHLR1JAqA0yYfKcVh4d-609" value="" style="group" vertex="1" connectable="0" parent="1">
          <mxGeometry x="2378" y="5042.75" width="40" height="40" as="geometry" />
        </mxCell>
        <mxCell id="3oHLR1JAqA0yYfKcVh4d-610" value="" style="ellipse;whiteSpace=wrap;html=1;aspect=fixed;fillColor=#fad9d5;strokeColor=#ae4132;" vertex="1" parent="3oHLR1JAqA0yYfKcVh4d-609">
          <mxGeometry width="40" height="40" as="geometry" />
        </mxCell>
        <mxCell id="3oHLR1JAqA0yYfKcVh4d-611" value="" style="pointerEvents=1;verticalLabelPosition=bottom;shadow=0;dashed=0;align=center;html=1;verticalAlign=top;shape=mxgraph.electrical.waveforms.sine_wave;" vertex="1" parent="3oHLR1JAqA0yYfKcVh4d-609">
          <mxGeometry x="9" y="11.46" width="22" height="17.09" as="geometry" />
        </mxCell>
        <mxCell id="3oHLR1JAqA0yYfKcVh4d-612" style="edgeStyle=orthogonalEdgeStyle;rounded=0;orthogonalLoop=1;jettySize=auto;html=1;entryX=1;entryY=0.5;entryDx=0;entryDy=0;" edge="1" parent="1" source="3oHLR1JAqA0yYfKcVh4d-602" target="3oHLR1JAqA0yYfKcVh4d-610">
          <mxGeometry relative="1" as="geometry" />
        </mxCell>
        <mxCell id="3oHLR1JAqA0yYfKcVh4d-616" style="edgeStyle=orthogonalEdgeStyle;rounded=0;orthogonalLoop=1;jettySize=auto;html=1;entryX=0.5;entryY=1;entryDx=0;entryDy=0;strokeColor=#0E8088;" edge="1" parent="1" source="3oHLR1JAqA0yYfKcVh4d-449" target="3oHLR1JAqA0yYfKcVh4d-535">
          <mxGeometry relative="1" as="geometry">
            <Array as="points">
              <mxPoint x="1853" y="5170" />
              <mxPoint x="1853" y="5083" />
              <mxPoint x="2210" y="5083" />
            </Array>
          </mxGeometry>
        </mxCell>
        <mxCell id="3oHLR1JAqA0yYfKcVh4d-617" style="edgeStyle=orthogonalEdgeStyle;rounded=0;orthogonalLoop=1;jettySize=auto;html=1;entryX=0.5;entryY=1;entryDx=0;entryDy=0;strokeColor=#6C8EBF;" edge="1" parent="1" source="3oHLR1JAqA0yYfKcVh4d-437" target="3oHLR1JAqA0yYfKcVh4d-514">
          <mxGeometry relative="1" as="geometry">
            <Array as="points">
              <mxPoint x="1836" y="5108" />
              <mxPoint x="1836" y="4860" />
              <mxPoint x="1996" y="4860" />
            </Array>
          </mxGeometry>
        </mxCell>
      </root>
    </mxGraphModel>
  </diagram>
</mxfile>
